<?xml version="1.0" encoding="utf-8" standalone="no"?>
<!DOCTYPE svg PUBLIC "-//W3C//DTD SVG 1.1//EN"
  "http://www.w3.org/Graphics/SVG/1.1/DTD/svg11.dtd">
<!-- Created with matplotlib (https://matplotlib.org/) -->
<svg height="360pt" version="1.1" viewBox="0 0 504 360" width="504pt" xmlns="http://www.w3.org/2000/svg" xmlns:xlink="http://www.w3.org/1999/xlink">
 <metadata>
  <rdf:RDF xmlns:cc="http://creativecommons.org/ns#" xmlns:dc="http://purl.org/dc/elements/1.1/" xmlns:rdf="http://www.w3.org/1999/02/22-rdf-syntax-ns#">
   <cc:Work>
    <dc:type rdf:resource="http://purl.org/dc/dcmitype/StillImage"/>
    <dc:date>2021-02-07T12:42:27.627076</dc:date>
    <dc:format>image/svg+xml</dc:format>
    <dc:creator>
     <cc:Agent>
      <dc:title>Matplotlib v3.3.2, https://matplotlib.org/</dc:title>
     </cc:Agent>
    </dc:creator>
   </cc:Work>
  </rdf:RDF>
 </metadata>
 <defs>
  <style type="text/css">*{stroke-linecap:butt;stroke-linejoin:round;}</style>
 </defs>
 <g id="figure_1">
  <g id="patch_1">
   <path d="M 0 360 
L 504 360 
L 504 0 
L 0 0 
z
" style="fill:none;"/>
  </g>
  <g id="axes_1">
   <g id="patch_2">
    <path d="M 55.44 309.6 
L 498.96 309.6 
L 498.96 3.6 
L 55.44 3.6 
z
" style="fill:#ffffff;"/>
   </g>
   <g id="matplotlib.axis_1">
    <g id="xtick_1">
     <g id="line2d_1">
      <path clip-path="url(#p91150ccfa6)" d="M 75.6 309.6 
L 75.6 3.6 
" style="fill:none;stroke:#b0b0b0;stroke-dasharray:0.8,1.32;stroke-dashoffset:0;stroke-width:0.8;"/>
     </g>
     <g id="line2d_2">
      <defs>
       <path d="M 0 0 
L 0 3.5 
" id="m5878fe2dc5" style="stroke:#000000;stroke-width:0.8;"/>
      </defs>
      <g>
       <use style="stroke:#000000;stroke-width:0.8;" x="75.6" xlink:href="#m5878fe2dc5" y="309.6"/>
      </g>
     </g>
     <g id="text_1">
      <!-- 0.0 -->
      <g transform="translate(63.1 330.4875)scale(0.2 -0.2)">
       <defs>
        <path d="M 3.609375 32.71875 
Q 3.609375 44.046875 7.03125 52.21875 
Q 10.453125 60.40625 16.109375 64.40625 
Q 20.515625 67.578125 25.203125 67.578125 
Q 32.8125 67.578125 38.875 59.8125 
Q 46.4375 50.203125 46.4375 33.734375 
Q 46.4375 22.21875 43.109375 14.15625 
Q 39.796875 6.109375 34.640625 2.46875 
Q 29.5 -1.171875 24.703125 -1.171875 
Q 15.234375 -1.171875 8.9375 10.015625 
Q 3.609375 19.4375 3.609375 32.71875 
z
M 13.1875 31.5 
Q 13.1875 17.828125 16.546875 9.1875 
Q 19.34375 1.90625 24.859375 1.90625 
Q 27.484375 1.90625 30.3125 4.265625 
Q 33.15625 6.640625 34.625 12.203125 
Q 36.859375 20.609375 36.859375 35.890625 
Q 36.859375 47.21875 34.515625 54.78125 
Q 32.765625 60.40625 29.984375 62.75 
Q 27.984375 64.359375 25.140625 64.359375 
Q 21.828125 64.359375 19.234375 61.375 
Q 15.71875 57.328125 14.453125 48.625 
Q 13.1875 39.9375 13.1875 31.5 
z
" id="TimesNewRomanPSMT-48"/>
        <path d="M 12.5 9.46875 
Q 14.796875 9.46875 16.359375 7.875 
Q 17.921875 6.296875 17.921875 4.046875 
Q 17.921875 1.8125 16.328125 0.21875 
Q 14.75 -1.375 12.5 -1.375 
Q 10.25 -1.375 8.65625 0.21875 
Q 7.078125 1.8125 7.078125 4.046875 
Q 7.078125 6.34375 8.65625 7.90625 
Q 10.25 9.46875 12.5 9.46875 
z
" id="TimesNewRomanPSMT-46"/>
       </defs>
       <use xlink:href="#TimesNewRomanPSMT-48"/>
       <use x="50" xlink:href="#TimesNewRomanPSMT-46"/>
       <use x="75" xlink:href="#TimesNewRomanPSMT-48"/>
      </g>
     </g>
    </g>
    <g id="xtick_2">
     <g id="line2d_3">
      <path clip-path="url(#p91150ccfa6)" d="M 277.2 309.6 
L 277.2 3.6 
" style="fill:none;stroke:#b0b0b0;stroke-dasharray:0.8,1.32;stroke-dashoffset:0;stroke-width:0.8;"/>
     </g>
     <g id="line2d_4">
      <g>
       <use style="stroke:#000000;stroke-width:0.8;" x="277.2" xlink:href="#m5878fe2dc5" y="309.6"/>
      </g>
     </g>
     <g id="text_2">
      <!-- 0.5 -->
      <g transform="translate(264.7 330.4875)scale(0.2 -0.2)">
       <defs>
        <path d="M 43.40625 66.21875 
L 39.59375 57.90625 
L 19.671875 57.90625 
L 15.328125 49.03125 
Q 28.265625 47.125 35.84375 39.40625 
Q 42.328125 32.765625 42.328125 23.78125 
Q 42.328125 18.5625 40.203125 14.109375 
Q 38.09375 9.671875 34.859375 6.546875 
Q 31.640625 3.421875 27.6875 1.515625 
Q 22.078125 -1.171875 16.15625 -1.171875 
Q 10.203125 -1.171875 7.484375 0.84375 
Q 4.78125 2.875 4.78125 5.328125 
Q 4.78125 6.6875 5.90625 7.734375 
Q 7.03125 8.796875 8.734375 8.796875 
Q 10.015625 8.796875 10.96875 8.40625 
Q 11.921875 8.015625 14.203125 6.390625 
Q 17.875 3.859375 21.625 3.859375 
Q 27.34375 3.859375 31.65625 8.171875 
Q 35.984375 12.5 35.984375 18.703125 
Q 35.984375 24.703125 32.125 29.90625 
Q 28.265625 35.109375 21.484375 37.9375 
Q 16.15625 40.140625 6.984375 40.484375 
L 19.671875 66.21875 
z
" id="TimesNewRomanPSMT-53"/>
       </defs>
       <use xlink:href="#TimesNewRomanPSMT-48"/>
       <use x="50" xlink:href="#TimesNewRomanPSMT-46"/>
       <use x="75" xlink:href="#TimesNewRomanPSMT-53"/>
      </g>
     </g>
    </g>
    <g id="xtick_3">
     <g id="line2d_5">
      <path clip-path="url(#p91150ccfa6)" d="M 478.8 309.6 
L 478.8 3.6 
" style="fill:none;stroke:#b0b0b0;stroke-dasharray:0.8,1.32;stroke-dashoffset:0;stroke-width:0.8;"/>
     </g>
     <g id="line2d_6">
      <g>
       <use style="stroke:#000000;stroke-width:0.8;" x="478.8" xlink:href="#m5878fe2dc5" y="309.6"/>
      </g>
     </g>
     <g id="text_3">
      <!-- 1.0 -->
      <g transform="translate(466.3 330.4875)scale(0.2 -0.2)">
       <defs>
        <path d="M 11.71875 59.71875 
L 27.828125 67.578125 
L 29.4375 67.578125 
L 29.4375 11.671875 
Q 29.4375 6.109375 29.90625 4.734375 
Q 30.375 3.375 31.828125 2.640625 
Q 33.296875 1.90625 37.796875 1.8125 
L 37.796875 0 
L 12.890625 0 
L 12.890625 1.8125 
Q 17.578125 1.90625 18.9375 2.609375 
Q 20.3125 3.328125 20.84375 4.515625 
Q 21.390625 5.71875 21.390625 11.671875 
L 21.390625 47.40625 
Q 21.390625 54.640625 20.90625 56.6875 
Q 20.5625 58.25 19.65625 58.984375 
Q 18.75 59.71875 17.484375 59.71875 
Q 15.671875 59.71875 12.453125 58.203125 
z
" id="TimesNewRomanPSMT-49"/>
       </defs>
       <use xlink:href="#TimesNewRomanPSMT-49"/>
       <use x="50" xlink:href="#TimesNewRomanPSMT-46"/>
       <use x="75" xlink:href="#TimesNewRomanPSMT-48"/>
      </g>
     </g>
    </g>
    <g id="xtick_4">
     <g id="line2d_7">
      <defs>
       <path d="M 0 0 
L 0 2 
" id="m0db87233fa" style="stroke:#000000;stroke-width:0.6;"/>
      </defs>
      <g>
       <use style="stroke:#000000;stroke-width:0.6;" x="100.8" xlink:href="#m0db87233fa" y="309.6"/>
      </g>
     </g>
    </g>
    <g id="xtick_5">
     <g id="line2d_8">
      <g>
       <use style="stroke:#000000;stroke-width:0.6;" x="126" xlink:href="#m0db87233fa" y="309.6"/>
      </g>
     </g>
    </g>
    <g id="xtick_6">
     <g id="line2d_9">
      <g>
       <use style="stroke:#000000;stroke-width:0.6;" x="151.2" xlink:href="#m0db87233fa" y="309.6"/>
      </g>
     </g>
    </g>
    <g id="xtick_7">
     <g id="line2d_10">
      <g>
       <use style="stroke:#000000;stroke-width:0.6;" x="176.4" xlink:href="#m0db87233fa" y="309.6"/>
      </g>
     </g>
    </g>
    <g id="xtick_8">
     <g id="line2d_11">
      <g>
       <use style="stroke:#000000;stroke-width:0.6;" x="201.6" xlink:href="#m0db87233fa" y="309.6"/>
      </g>
     </g>
    </g>
    <g id="xtick_9">
     <g id="line2d_12">
      <g>
       <use style="stroke:#000000;stroke-width:0.6;" x="226.8" xlink:href="#m0db87233fa" y="309.6"/>
      </g>
     </g>
    </g>
    <g id="xtick_10">
     <g id="line2d_13">
      <g>
       <use style="stroke:#000000;stroke-width:0.6;" x="252" xlink:href="#m0db87233fa" y="309.6"/>
      </g>
     </g>
    </g>
    <g id="xtick_11">
     <g id="line2d_14">
      <g>
       <use style="stroke:#000000;stroke-width:0.6;" x="302.4" xlink:href="#m0db87233fa" y="309.6"/>
      </g>
     </g>
    </g>
    <g id="xtick_12">
     <g id="line2d_15">
      <g>
       <use style="stroke:#000000;stroke-width:0.6;" x="327.6" xlink:href="#m0db87233fa" y="309.6"/>
      </g>
     </g>
    </g>
    <g id="xtick_13">
     <g id="line2d_16">
      <g>
       <use style="stroke:#000000;stroke-width:0.6;" x="352.8" xlink:href="#m0db87233fa" y="309.6"/>
      </g>
     </g>
    </g>
    <g id="xtick_14">
     <g id="line2d_17">
      <g>
       <use style="stroke:#000000;stroke-width:0.6;" x="378" xlink:href="#m0db87233fa" y="309.6"/>
      </g>
     </g>
    </g>
    <g id="xtick_15">
     <g id="line2d_18">
      <g>
       <use style="stroke:#000000;stroke-width:0.6;" x="403.2" xlink:href="#m0db87233fa" y="309.6"/>
      </g>
     </g>
    </g>
    <g id="xtick_16">
     <g id="line2d_19">
      <g>
       <use style="stroke:#000000;stroke-width:0.6;" x="428.4" xlink:href="#m0db87233fa" y="309.6"/>
      </g>
     </g>
    </g>
    <g id="xtick_17">
     <g id="line2d_20">
      <g>
       <use style="stroke:#000000;stroke-width:0.6;" x="453.6" xlink:href="#m0db87233fa" y="309.6"/>
      </g>
     </g>
    </g>
    <g id="text_4">
     <!-- False positive rate -->
     <g transform="translate(204.439062 352.653125)scale(0.2 -0.2)">
      <defs>
       <path d="M 20.453125 62.59375 
L 20.453125 36.578125 
L 32.515625 36.578125 
Q 36.671875 36.578125 38.59375 38.40625 
Q 40.53125 40.234375 41.15625 45.65625 
L 42.96875 45.65625 
L 42.96875 23.25 
L 41.15625 23.25 
Q 41.109375 27.09375 40.15625 28.90625 
Q 39.203125 30.71875 37.515625 31.609375 
Q 35.84375 32.515625 32.515625 32.515625 
L 20.453125 32.515625 
L 20.453125 11.71875 
Q 20.453125 6.6875 21.09375 5.078125 
Q 21.578125 3.859375 23.140625 2.984375 
Q 25.296875 1.8125 27.640625 1.8125 
L 30.03125 1.8125 
L 30.03125 0 
L 1.609375 0 
L 1.609375 1.8125 
L 3.953125 1.8125 
Q 8.0625 1.8125 9.90625 4.203125 
Q 11.078125 5.765625 11.078125 11.71875 
L 11.078125 54.5 
Q 11.078125 59.515625 10.453125 61.140625 
Q 9.96875 62.359375 8.453125 63.234375 
Q 6.34375 64.40625 3.953125 64.40625 
L 1.609375 64.40625 
L 1.609375 66.21875 
L 50.875 66.21875 
L 51.515625 51.65625 
L 49.8125 51.65625 
Q 48.53125 56.296875 46.84375 58.46875 
Q 45.171875 60.640625 42.703125 61.609375 
Q 40.234375 62.59375 35.0625 62.59375 
z
" id="TimesNewRomanPSMT-70"/>
       <path d="M 28.46875 6.453125 
Q 21.578125 1.125 19.828125 0.296875 
Q 17.1875 -0.921875 14.203125 -0.921875 
Q 9.578125 -0.921875 6.5625 2.25 
Q 3.5625 5.421875 3.5625 10.59375 
Q 3.5625 13.875 5.03125 16.265625 
Q 7.03125 19.578125 11.984375 22.5 
Q 16.9375 25.4375 28.46875 29.640625 
L 28.46875 31.390625 
Q 28.46875 38.09375 26.34375 40.578125 
Q 24.21875 43.0625 20.171875 43.0625 
Q 17.09375 43.0625 15.28125 41.40625 
Q 13.421875 39.75 13.421875 37.59375 
L 13.53125 34.765625 
Q 13.53125 32.515625 12.375 31.296875 
Q 11.234375 30.078125 9.375 30.078125 
Q 7.5625 30.078125 6.421875 31.34375 
Q 5.28125 32.625 5.28125 34.8125 
Q 5.28125 39.015625 9.578125 42.53125 
Q 13.875 46.046875 21.625 46.046875 
Q 27.59375 46.046875 31.390625 44.046875 
Q 34.28125 42.53125 35.640625 39.3125 
Q 36.53125 37.203125 36.53125 30.71875 
L 36.53125 15.53125 
Q 36.53125 9.125 36.765625 7.6875 
Q 37.015625 6.25 37.578125 5.765625 
Q 38.140625 5.28125 38.875 5.28125 
Q 39.65625 5.28125 40.234375 5.609375 
Q 41.265625 6.25 44.1875 9.1875 
L 44.1875 6.453125 
Q 38.71875 -0.875 33.734375 -0.875 
Q 31.34375 -0.875 29.921875 0.78125 
Q 28.515625 2.4375 28.46875 6.453125 
z
M 28.46875 9.625 
L 28.46875 26.65625 
Q 21.09375 23.734375 18.953125 22.515625 
Q 15.09375 20.359375 13.421875 18.015625 
Q 11.765625 15.671875 11.765625 12.890625 
Q 11.765625 9.375 13.859375 7.046875 
Q 15.96875 4.734375 18.703125 4.734375 
Q 22.40625 4.734375 28.46875 9.625 
z
" id="TimesNewRomanPSMT-97"/>
       <path d="M 18.5 69.4375 
L 18.5 10.109375 
Q 18.5 5.90625 19.109375 4.53125 
Q 19.734375 3.171875 21 2.46875 
Q 22.265625 1.765625 25.734375 1.765625 
L 25.734375 0 
L 3.8125 0 
L 3.8125 1.765625 
Q 6.890625 1.765625 8 2.390625 
Q 9.125 3.03125 9.765625 4.484375 
Q 10.40625 5.953125 10.40625 10.109375 
L 10.40625 50.734375 
Q 10.40625 58.296875 10.0625 60.03125 
Q 9.71875 61.765625 8.953125 62.390625 
Q 8.203125 63.03125 7.03125 63.03125 
Q 5.765625 63.03125 3.8125 62.25 
L 2.984375 63.96875 
L 16.3125 69.4375 
z
" id="TimesNewRomanPSMT-108"/>
       <path d="M 32.03125 46.046875 
L 32.03125 30.8125 
L 30.421875 30.8125 
Q 28.5625 37.984375 25.65625 40.578125 
Q 22.75 43.171875 18.265625 43.171875 
Q 14.84375 43.171875 12.734375 41.359375 
Q 10.640625 39.546875 10.640625 37.359375 
Q 10.640625 34.625 12.203125 32.671875 
Q 13.71875 30.671875 18.359375 28.421875 
L 25.484375 24.953125 
Q 35.40625 20.125 35.40625 12.203125 
Q 35.40625 6.109375 30.78125 2.359375 
Q 26.171875 -1.375 20.453125 -1.375 
Q 16.359375 -1.375 11.078125 0.09375 
Q 9.46875 0.59375 8.453125 0.59375 
Q 7.328125 0.59375 6.6875 -0.6875 
L 5.078125 -0.6875 
L 5.078125 15.28125 
L 6.6875 15.28125 
Q 8.0625 8.453125 11.90625 4.984375 
Q 15.765625 1.515625 20.5625 1.515625 
Q 23.921875 1.515625 26.046875 3.484375 
Q 28.171875 5.46875 28.171875 8.25 
Q 28.171875 11.625 25.796875 13.921875 
Q 23.4375 16.21875 16.359375 19.734375 
Q 9.28125 23.25 7.078125 26.078125 
Q 4.890625 28.859375 4.890625 33.109375 
Q 4.890625 38.625 8.671875 42.328125 
Q 12.453125 46.046875 18.453125 46.046875 
Q 21.09375 46.046875 24.859375 44.921875 
Q 27.34375 44.1875 28.171875 44.1875 
Q 28.953125 44.1875 29.390625 44.53125 
Q 29.828125 44.875 30.421875 46.046875 
z
" id="TimesNewRomanPSMT-115"/>
       <path d="M 10.640625 27.875 
Q 10.59375 17.921875 15.484375 12.25 
Q 20.359375 6.59375 26.953125 6.59375 
Q 31.34375 6.59375 34.59375 9 
Q 37.84375 11.421875 40.046875 17.28125 
L 41.546875 16.3125 
Q 40.53125 9.625 35.59375 4.125 
Q 30.671875 -1.375 23.25 -1.375 
Q 15.1875 -1.375 9.453125 4.90625 
Q 3.71875 11.1875 3.71875 21.78125 
Q 3.71875 33.25 9.59375 39.671875 
Q 15.484375 46.09375 24.359375 46.09375 
Q 31.890625 46.09375 36.71875 41.140625 
Q 41.546875 36.1875 41.546875 27.875 
z
M 10.640625 30.71875 
L 31.34375 30.71875 
Q 31.109375 35.015625 30.328125 36.765625 
Q 29.109375 39.5 26.6875 41.0625 
Q 24.265625 42.625 21.625 42.625 
Q 17.578125 42.625 14.375 39.46875 
Q 11.1875 36.328125 10.640625 30.71875 
z
" id="TimesNewRomanPSMT-101"/>
       <path id="TimesNewRomanPSMT-32"/>
       <path d="M -0.09375 40.28125 
L 13.671875 45.84375 
L 15.53125 45.84375 
L 15.53125 35.40625 
Q 19 41.3125 22.484375 43.671875 
Q 25.984375 46.046875 29.828125 46.046875 
Q 36.578125 46.046875 41.0625 40.765625 
Q 46.578125 34.328125 46.578125 23.96875 
Q 46.578125 12.40625 39.9375 4.828125 
Q 34.46875 -1.375 26.171875 -1.375 
Q 22.5625 -1.375 19.921875 -0.34375 
Q 17.96875 0.390625 15.53125 2.59375 
L 15.53125 -11.03125 
Q 15.53125 -15.625 16.09375 -16.859375 
Q 16.65625 -18.109375 18.046875 -18.84375 
Q 19.4375 -19.578125 23.09375 -19.578125 
L 23.09375 -21.390625 
L -0.34375 -21.390625 
L -0.34375 -19.578125 
L 0.875 -19.578125 
Q 3.5625 -19.625 5.46875 -18.5625 
Q 6.390625 -18.015625 6.90625 -16.8125 
Q 7.421875 -15.625 7.421875 -10.75 
L 7.421875 31.546875 
Q 7.421875 35.890625 7.03125 37.0625 
Q 6.640625 38.234375 5.78125 38.8125 
Q 4.9375 39.40625 3.46875 39.40625 
Q 2.296875 39.40625 0.484375 38.71875 
z
M 15.53125 32.515625 
L 15.53125 15.828125 
Q 15.53125 10.40625 15.96875 8.6875 
Q 16.65625 5.859375 19.3125 3.703125 
Q 21.96875 1.5625 26.03125 1.5625 
Q 30.90625 1.5625 33.9375 5.375 
Q 37.890625 10.359375 37.890625 19.390625 
Q 37.890625 29.640625 33.40625 35.15625 
Q 30.28125 38.96875 25.984375 38.96875 
Q 23.640625 38.96875 21.34375 37.796875 
Q 19.578125 36.921875 15.53125 32.515625 
z
" id="TimesNewRomanPSMT-112"/>
       <path d="M 25 46.046875 
Q 35.15625 46.046875 41.3125 38.328125 
Q 46.53125 31.734375 46.53125 23.1875 
Q 46.53125 17.1875 43.640625 11.03125 
Q 40.765625 4.890625 35.71875 1.75 
Q 30.671875 -1.375 24.46875 -1.375 
Q 14.359375 -1.375 8.40625 6.6875 
Q 3.375 13.484375 3.375 21.921875 
Q 3.375 28.078125 6.421875 34.15625 
Q 9.46875 40.234375 14.453125 43.140625 
Q 19.4375 46.046875 25 46.046875 
z
M 23.484375 42.875 
Q 20.90625 42.875 18.28125 41.328125 
Q 15.671875 39.796875 14.0625 35.9375 
Q 12.453125 32.078125 12.453125 26.03125 
Q 12.453125 16.265625 16.328125 9.171875 
Q 20.21875 2.09375 26.5625 2.09375 
Q 31.296875 2.09375 34.375 6 
Q 37.453125 9.90625 37.453125 19.4375 
Q 37.453125 31.34375 32.328125 38.1875 
Q 28.859375 42.875 23.484375 42.875 
z
" id="TimesNewRomanPSMT-111"/>
       <path d="M 14.5 69.4375 
Q 16.546875 69.4375 17.984375 67.984375 
Q 19.4375 66.546875 19.4375 64.5 
Q 19.4375 62.453125 17.984375 60.984375 
Q 16.546875 59.515625 14.5 59.515625 
Q 12.453125 59.515625 10.984375 60.984375 
Q 9.515625 62.453125 9.515625 64.5 
Q 9.515625 66.546875 10.953125 67.984375 
Q 12.40625 69.4375 14.5 69.4375 
z
M 18.5625 46.046875 
L 18.5625 10.109375 
Q 18.5625 5.90625 19.171875 4.515625 
Q 19.78125 3.125 20.96875 2.4375 
Q 22.171875 1.765625 25.34375 1.765625 
L 25.34375 0 
L 3.609375 0 
L 3.609375 1.765625 
Q 6.890625 1.765625 8 2.390625 
Q 9.125 3.03125 9.78125 4.484375 
Q 10.453125 5.953125 10.453125 10.109375 
L 10.453125 27.34375 
Q 10.453125 34.625 10.015625 36.765625 
Q 9.671875 38.328125 8.9375 38.9375 
Q 8.203125 39.546875 6.9375 39.546875 
Q 5.5625 39.546875 3.609375 38.8125 
L 2.9375 40.578125 
L 16.40625 46.046875 
z
" id="TimesNewRomanPSMT-105"/>
       <path d="M 16.109375 59.421875 
L 16.109375 44.734375 
L 26.5625 44.734375 
L 26.5625 41.3125 
L 16.109375 41.3125 
L 16.109375 12.3125 
Q 16.109375 7.953125 17.359375 6.4375 
Q 18.609375 4.9375 20.5625 4.9375 
Q 22.171875 4.9375 23.6875 5.9375 
Q 25.203125 6.9375 26.03125 8.890625 
L 27.9375 8.890625 
Q 26.21875 4.109375 23.09375 1.6875 
Q 19.96875 -0.734375 16.65625 -0.734375 
Q 14.40625 -0.734375 12.25 0.515625 
Q 10.109375 1.765625 9.078125 4.078125 
Q 8.0625 6.390625 8.0625 11.234375 
L 8.0625 41.3125 
L 0.984375 41.3125 
L 0.984375 42.921875 
Q 3.65625 44 6.46875 46.5625 
Q 9.28125 49.125 11.46875 52.640625 
Q 12.59375 54.5 14.59375 59.421875 
z
" id="TimesNewRomanPSMT-116"/>
       <path d="M 0.828125 44.734375 
L 21.875 44.734375 
L 21.875 42.921875 
L 20.515625 42.921875 
Q 18.609375 42.921875 17.609375 41.984375 
Q 16.609375 41.0625 16.609375 39.5 
Q 16.609375 37.796875 17.625 35.453125 
L 28.03125 10.75 
L 38.484375 36.375 
Q 39.59375 39.109375 39.59375 40.53125 
Q 39.59375 41.21875 39.203125 41.65625 
Q 38.671875 42.390625 37.84375 42.65625 
Q 37.015625 42.921875 34.46875 42.921875 
L 34.46875 44.734375 
L 49.078125 44.734375 
L 49.078125 42.921875 
Q 46.53125 42.71875 45.5625 41.890625 
Q 43.84375 40.4375 42.484375 37.015625 
L 26.609375 -1.375 
L 24.609375 -1.375 
L 8.640625 36.375 
Q 7.5625 39.015625 6.578125 40.15625 
Q 5.609375 41.3125 4.109375 42.09375 
Q 3.265625 42.53125 0.828125 42.921875 
z
" id="TimesNewRomanPSMT-118"/>
       <path d="M 16.21875 46.046875 
L 16.21875 35.984375 
Q 21.828125 46.046875 27.734375 46.046875 
Q 30.421875 46.046875 32.171875 44.40625 
Q 33.9375 42.78125 33.9375 40.625 
Q 33.9375 38.71875 32.65625 37.390625 
Q 31.390625 36.078125 29.640625 36.078125 
Q 27.9375 36.078125 25.8125 37.765625 
Q 23.6875 39.453125 22.65625 39.453125 
Q 21.78125 39.453125 20.75 38.484375 
Q 18.5625 36.46875 16.21875 31.890625 
L 16.21875 10.453125 
Q 16.21875 6.734375 17.140625 4.828125 
Q 17.78125 3.515625 19.390625 2.640625 
Q 21 1.765625 24.03125 1.765625 
L 24.03125 0 
L 1.125 0 
L 1.125 1.765625 
Q 4.546875 1.765625 6.203125 2.828125 
Q 7.421875 3.609375 7.90625 5.328125 
Q 8.15625 6.15625 8.15625 10.0625 
L 8.15625 27.390625 
Q 8.15625 35.203125 7.828125 36.6875 
Q 7.515625 38.1875 6.65625 38.859375 
Q 5.8125 39.546875 4.546875 39.546875 
Q 3.03125 39.546875 1.125 38.8125 
L 0.640625 40.578125 
L 14.15625 46.046875 
z
" id="TimesNewRomanPSMT-114"/>
      </defs>
      <use xlink:href="#TimesNewRomanPSMT-70"/>
      <use x="55.615234" xlink:href="#TimesNewRomanPSMT-97"/>
      <use x="100" xlink:href="#TimesNewRomanPSMT-108"/>
      <use x="127.783203" xlink:href="#TimesNewRomanPSMT-115"/>
      <use x="166.699219" xlink:href="#TimesNewRomanPSMT-101"/>
      <use x="211.083984" xlink:href="#TimesNewRomanPSMT-32"/>
      <use x="236.083984" xlink:href="#TimesNewRomanPSMT-112"/>
      <use x="286.083984" xlink:href="#TimesNewRomanPSMT-111"/>
      <use x="336.083984" xlink:href="#TimesNewRomanPSMT-115"/>
      <use x="375" xlink:href="#TimesNewRomanPSMT-105"/>
      <use x="402.783203" xlink:href="#TimesNewRomanPSMT-116"/>
      <use x="430.566406" xlink:href="#TimesNewRomanPSMT-105"/>
      <use x="458.349609" xlink:href="#TimesNewRomanPSMT-118"/>
      <use x="508.349609" xlink:href="#TimesNewRomanPSMT-101"/>
      <use x="552.734375" xlink:href="#TimesNewRomanPSMT-32"/>
      <use x="577.734375" xlink:href="#TimesNewRomanPSMT-114"/>
      <use x="611.035156" xlink:href="#TimesNewRomanPSMT-97"/>
      <use x="655.419922" xlink:href="#TimesNewRomanPSMT-116"/>
      <use x="683.203125" xlink:href="#TimesNewRomanPSMT-101"/>
     </g>
    </g>
   </g>
   <g id="matplotlib.axis_2">
    <g id="ytick_1">
     <g id="line2d_21">
      <path clip-path="url(#p91150ccfa6)" d="M 55.44 295.690909 
L 498.96 295.690909 
" style="fill:none;stroke:#b0b0b0;stroke-dasharray:0.8,1.32;stroke-dashoffset:0;stroke-width:0.8;"/>
     </g>
     <g id="line2d_22">
      <defs>
       <path d="M 0 0 
L -3.5 0 
" id="ma6d6038373" style="stroke:#000000;stroke-width:0.8;"/>
      </defs>
      <g>
       <use style="stroke:#000000;stroke-width:0.8;" x="55.44" xlink:href="#ma6d6038373" y="295.690909"/>
      </g>
     </g>
     <g id="text_5">
      <!-- 0.0 -->
      <g transform="translate(23.44 302.634659)scale(0.2 -0.2)">
       <use xlink:href="#TimesNewRomanPSMT-48"/>
       <use x="50" xlink:href="#TimesNewRomanPSMT-46"/>
       <use x="75" xlink:href="#TimesNewRomanPSMT-48"/>
      </g>
     </g>
    </g>
    <g id="ytick_2">
     <g id="line2d_23">
      <path clip-path="url(#p91150ccfa6)" d="M 55.44 156.6 
L 498.96 156.6 
" style="fill:none;stroke:#b0b0b0;stroke-dasharray:0.8,1.32;stroke-dashoffset:0;stroke-width:0.8;"/>
     </g>
     <g id="line2d_24">
      <g>
       <use style="stroke:#000000;stroke-width:0.8;" x="55.44" xlink:href="#ma6d6038373" y="156.6"/>
      </g>
     </g>
     <g id="text_6">
      <!-- 0.5 -->
      <g transform="translate(23.44 163.54375)scale(0.2 -0.2)">
       <use xlink:href="#TimesNewRomanPSMT-48"/>
       <use x="50" xlink:href="#TimesNewRomanPSMT-46"/>
       <use x="75" xlink:href="#TimesNewRomanPSMT-53"/>
      </g>
     </g>
    </g>
    <g id="ytick_3">
     <g id="line2d_25">
      <path clip-path="url(#p91150ccfa6)" d="M 55.44 17.509091 
L 498.96 17.509091 
" style="fill:none;stroke:#b0b0b0;stroke-dasharray:0.8,1.32;stroke-dashoffset:0;stroke-width:0.8;"/>
     </g>
     <g id="line2d_26">
      <g>
       <use style="stroke:#000000;stroke-width:0.8;" x="55.44" xlink:href="#ma6d6038373" y="17.509091"/>
      </g>
     </g>
     <g id="text_7">
      <!-- 1.0 -->
      <g transform="translate(23.44 24.452841)scale(0.2 -0.2)">
       <use xlink:href="#TimesNewRomanPSMT-49"/>
       <use x="50" xlink:href="#TimesNewRomanPSMT-46"/>
       <use x="75" xlink:href="#TimesNewRomanPSMT-48"/>
      </g>
     </g>
    </g>
    <g id="ytick_4">
     <g id="line2d_27">
      <defs>
       <path d="M 0 0 
L -2 0 
" id="m1910f683e4" style="stroke:#000000;stroke-width:0.6;"/>
      </defs>
      <g>
       <use style="stroke:#000000;stroke-width:0.6;" x="55.44" xlink:href="#m1910f683e4" y="278.304545"/>
      </g>
     </g>
    </g>
    <g id="ytick_5">
     <g id="line2d_28">
      <g>
       <use style="stroke:#000000;stroke-width:0.6;" x="55.44" xlink:href="#m1910f683e4" y="260.918182"/>
      </g>
     </g>
    </g>
    <g id="ytick_6">
     <g id="line2d_29">
      <g>
       <use style="stroke:#000000;stroke-width:0.6;" x="55.44" xlink:href="#m1910f683e4" y="243.531818"/>
      </g>
     </g>
    </g>
    <g id="ytick_7">
     <g id="line2d_30">
      <g>
       <use style="stroke:#000000;stroke-width:0.6;" x="55.44" xlink:href="#m1910f683e4" y="226.145455"/>
      </g>
     </g>
    </g>
    <g id="ytick_8">
     <g id="line2d_31">
      <g>
       <use style="stroke:#000000;stroke-width:0.6;" x="55.44" xlink:href="#m1910f683e4" y="208.759091"/>
      </g>
     </g>
    </g>
    <g id="ytick_9">
     <g id="line2d_32">
      <g>
       <use style="stroke:#000000;stroke-width:0.6;" x="55.44" xlink:href="#m1910f683e4" y="191.372727"/>
      </g>
     </g>
    </g>
    <g id="ytick_10">
     <g id="line2d_33">
      <g>
       <use style="stroke:#000000;stroke-width:0.6;" x="55.44" xlink:href="#m1910f683e4" y="173.986364"/>
      </g>
     </g>
    </g>
    <g id="ytick_11">
     <g id="line2d_34">
      <g>
       <use style="stroke:#000000;stroke-width:0.6;" x="55.44" xlink:href="#m1910f683e4" y="139.213636"/>
      </g>
     </g>
    </g>
    <g id="ytick_12">
     <g id="line2d_35">
      <g>
       <use style="stroke:#000000;stroke-width:0.6;" x="55.44" xlink:href="#m1910f683e4" y="121.827273"/>
      </g>
     </g>
    </g>
    <g id="ytick_13">
     <g id="line2d_36">
      <g>
       <use style="stroke:#000000;stroke-width:0.6;" x="55.44" xlink:href="#m1910f683e4" y="104.440909"/>
      </g>
     </g>
    </g>
    <g id="ytick_14">
     <g id="line2d_37">
      <g>
       <use style="stroke:#000000;stroke-width:0.6;" x="55.44" xlink:href="#m1910f683e4" y="87.054545"/>
      </g>
     </g>
    </g>
    <g id="ytick_15">
     <g id="line2d_38">
      <g>
       <use style="stroke:#000000;stroke-width:0.6;" x="55.44" xlink:href="#m1910f683e4" y="69.668182"/>
      </g>
     </g>
    </g>
    <g id="ytick_16">
     <g id="line2d_39">
      <g>
       <use style="stroke:#000000;stroke-width:0.6;" x="55.44" xlink:href="#m1910f683e4" y="52.281818"/>
      </g>
     </g>
    </g>
    <g id="ytick_17">
     <g id="line2d_40">
      <g>
       <use style="stroke:#000000;stroke-width:0.6;" x="55.44" xlink:href="#m1910f683e4" y="34.895455"/>
      </g>
     </g>
    </g>
    <g id="text_8">
     <!-- False negative rate -->
     <g transform="translate(15.124375 231.56875)rotate(-90)scale(0.2 -0.2)">
      <defs>
       <path d="M 16.15625 36.578125 
Q 24.03125 46.046875 31.15625 46.046875 
Q 34.8125 46.046875 37.453125 44.21875 
Q 40.09375 42.390625 41.65625 38.1875 
Q 42.71875 35.25 42.71875 29.203125 
L 42.71875 10.109375 
Q 42.71875 5.859375 43.40625 4.34375 
Q 43.953125 3.125 45.140625 2.4375 
Q 46.34375 1.765625 49.5625 1.765625 
L 49.5625 0 
L 27.4375 0 
L 27.4375 1.765625 
L 28.375 1.765625 
Q 31.5 1.765625 32.734375 2.703125 
Q 33.984375 3.65625 34.46875 5.515625 
Q 34.671875 6.25 34.671875 10.109375 
L 34.671875 28.421875 
Q 34.671875 34.515625 33.078125 37.28125 
Q 31.5 40.046875 27.734375 40.046875 
Q 21.921875 40.046875 16.15625 33.6875 
L 16.15625 10.109375 
Q 16.15625 5.5625 16.703125 4.5 
Q 17.390625 3.078125 18.578125 2.421875 
Q 19.78125 1.765625 23.4375 1.765625 
L 23.4375 0 
L 1.3125 0 
L 1.3125 1.765625 
L 2.296875 1.765625 
Q 5.71875 1.765625 6.90625 3.484375 
Q 8.109375 5.21875 8.109375 10.109375 
L 8.109375 26.703125 
Q 8.109375 34.765625 7.734375 36.515625 
Q 7.375 38.28125 6.609375 38.90625 
Q 5.859375 39.546875 4.59375 39.546875 
Q 3.21875 39.546875 1.3125 38.8125 
L 0.59375 40.578125 
L 14.0625 46.046875 
L 16.15625 46.046875 
z
" id="TimesNewRomanPSMT-110"/>
       <path d="M 15.09375 16.3125 
Q 10.984375 18.3125 8.78125 21.890625 
Q 6.59375 25.484375 6.59375 29.828125 
Q 6.59375 36.46875 11.59375 41.25 
Q 16.609375 46.046875 24.421875 46.046875 
Q 30.8125 46.046875 35.5 42.921875 
L 44.96875 42.921875 
Q 47.078125 42.921875 47.40625 42.796875 
Q 47.75 42.671875 47.90625 42.390625 
Q 48.1875 41.9375 48.1875 40.828125 
Q 48.1875 39.546875 47.953125 39.0625 
Q 47.796875 38.8125 47.4375 38.671875 
Q 47.078125 38.53125 44.96875 38.53125 
L 39.15625 38.53125 
Q 41.890625 35.015625 41.890625 29.546875 
Q 41.890625 23.296875 37.109375 18.84375 
Q 32.328125 14.40625 24.265625 14.40625 
Q 20.953125 14.40625 17.484375 15.375 
Q 15.328125 13.53125 14.5625 12.140625 
Q 13.8125 10.75 13.8125 9.765625 
Q 13.8125 8.9375 14.625 8.15625 
Q 15.4375 7.375 17.78125 7.03125 
Q 19.140625 6.84375 24.609375 6.6875 
Q 34.671875 6.453125 37.640625 6 
Q 42.1875 5.375 44.890625 2.640625 
Q 47.609375 -0.09375 47.609375 -4.109375 
Q 47.609375 -9.625 42.4375 -14.453125 
Q 34.8125 -21.578125 22.5625 -21.578125 
Q 13.140625 -21.578125 6.640625 -17.328125 
Q 2.984375 -14.890625 2.984375 -12.25 
Q 2.984375 -11.078125 3.515625 -9.90625 
Q 4.34375 -8.109375 6.9375 -4.890625 
Q 7.28125 -4.4375 11.921875 0.390625 
Q 9.375 1.90625 8.328125 3.09375 
Q 7.28125 4.296875 7.28125 5.8125 
Q 7.28125 7.515625 8.671875 9.8125 
Q 10.0625 12.109375 15.09375 16.3125 
z
M 23.578125 43.703125 
Q 19.96875 43.703125 17.53125 40.8125 
Q 15.09375 37.9375 15.09375 31.984375 
Q 15.09375 24.265625 18.40625 20.015625 
Q 20.953125 16.796875 24.859375 16.796875 
Q 28.5625 16.796875 30.953125 19.578125 
Q 33.34375 22.359375 33.34375 28.328125 
Q 33.34375 36.078125 29.984375 40.484375 
Q 27.484375 43.703125 23.578125 43.703125 
z
M 14.59375 0 
Q 12.3125 -2.484375 11.140625 -4.625 
Q 9.96875 -6.78125 9.96875 -8.59375 
Q 9.96875 -10.9375 12.796875 -12.703125 
Q 17.671875 -15.71875 26.90625 -15.71875 
Q 35.6875 -15.71875 39.859375 -12.609375 
Q 44.046875 -9.515625 44.046875 -6 
Q 44.046875 -3.46875 41.546875 -2.390625 
Q 39.015625 -1.3125 31.5 -1.125 
Q 20.515625 -0.828125 14.59375 0 
z
" id="TimesNewRomanPSMT-103"/>
      </defs>
      <use xlink:href="#TimesNewRomanPSMT-70"/>
      <use x="55.615234" xlink:href="#TimesNewRomanPSMT-97"/>
      <use x="100" xlink:href="#TimesNewRomanPSMT-108"/>
      <use x="127.783203" xlink:href="#TimesNewRomanPSMT-115"/>
      <use x="166.699219" xlink:href="#TimesNewRomanPSMT-101"/>
      <use x="211.083984" xlink:href="#TimesNewRomanPSMT-32"/>
      <use x="236.083984" xlink:href="#TimesNewRomanPSMT-110"/>
      <use x="286.083984" xlink:href="#TimesNewRomanPSMT-101"/>
      <use x="330.46875" xlink:href="#TimesNewRomanPSMT-103"/>
      <use x="380.46875" xlink:href="#TimesNewRomanPSMT-97"/>
      <use x="424.853516" xlink:href="#TimesNewRomanPSMT-116"/>
      <use x="452.636719" xlink:href="#TimesNewRomanPSMT-105"/>
      <use x="480.419922" xlink:href="#TimesNewRomanPSMT-118"/>
      <use x="530.419922" xlink:href="#TimesNewRomanPSMT-101"/>
      <use x="574.804688" xlink:href="#TimesNewRomanPSMT-32"/>
      <use x="599.804688" xlink:href="#TimesNewRomanPSMT-114"/>
      <use x="633.105469" xlink:href="#TimesNewRomanPSMT-97"/>
      <use x="677.490234" xlink:href="#TimesNewRomanPSMT-116"/>
      <use x="705.273438" xlink:href="#TimesNewRomanPSMT-101"/>
     </g>
    </g>
   </g>
   <g id="patch_3">
    <path d="M 55.44 309.6 
L 55.44 3.6 
" style="fill:none;stroke:#000000;stroke-linecap:square;stroke-linejoin:miter;stroke-width:0.8;"/>
   </g>
   <g id="patch_4">
    <path d="M 498.96 309.6 
L 498.96 3.6 
" style="fill:none;stroke:#000000;stroke-linecap:square;stroke-linejoin:miter;stroke-width:0.8;"/>
   </g>
   <g id="patch_5">
    <path d="M 55.44 309.6 
L 498.96 309.6 
" style="fill:none;stroke:#000000;stroke-linecap:square;stroke-linejoin:miter;stroke-width:0.8;"/>
   </g>
   <g id="patch_6">
    <path d="M 55.44 3.6 
L 498.96 3.6 
" style="fill:none;stroke:#000000;stroke-linecap:square;stroke-linejoin:miter;stroke-width:0.8;"/>
   </g>
   <g id="text_9">
    <!-- 64QAM@40dB -->
    <g transform="translate(200.14125 -2.4)scale(0.24 -0.24)">
     <defs>
      <path d="M 44.828125 67.578125 
L 44.828125 65.765625 
Q 38.375 65.140625 34.296875 63.203125 
Q 30.21875 61.28125 26.234375 57.328125 
Q 22.265625 53.375 19.65625 48.515625 
Q 17.046875 43.65625 15.28125 36.96875 
Q 22.3125 41.796875 29.390625 41.796875 
Q 36.1875 41.796875 41.15625 36.328125 
Q 46.140625 30.859375 46.140625 22.265625 
Q 46.140625 13.96875 41.109375 7.125 
Q 35.0625 -1.171875 25.09375 -1.171875 
Q 18.3125 -1.171875 13.578125 3.328125 
Q 4.296875 12.0625 4.296875 25.984375 
Q 4.296875 34.859375 7.859375 42.859375 
Q 11.421875 50.875 18.03125 57.078125 
Q 24.65625 63.28125 30.703125 65.421875 
Q 36.765625 67.578125 42 67.578125 
z
M 14.453125 33.40625 
Q 13.578125 26.8125 13.578125 22.75 
Q 13.578125 18.0625 15.3125 12.5625 
Q 17.046875 7.078125 20.453125 3.859375 
Q 22.953125 1.5625 26.515625 1.5625 
Q 30.765625 1.5625 34.109375 5.5625 
Q 37.453125 9.578125 37.453125 17 
Q 37.453125 25.34375 34.125 31.4375 
Q 30.8125 37.546875 24.703125 37.546875 
Q 22.859375 37.546875 20.734375 36.765625 
Q 18.609375 35.984375 14.453125 33.40625 
z
" id="TimesNewRomanPSMT-54"/>
      <path d="M 46.53125 24.421875 
L 46.53125 17.484375 
L 37.640625 17.484375 
L 37.640625 0 
L 29.59375 0 
L 29.59375 17.484375 
L 1.5625 17.484375 
L 1.5625 23.734375 
L 32.28125 67.578125 
L 37.640625 67.578125 
L 37.640625 24.421875 
z
M 29.59375 24.421875 
L 29.59375 57.28125 
L 6.34375 24.421875 
z
" id="TimesNewRomanPSMT-52"/>
      <path d="M 44.046875 -0.734375 
Q 49.03125 -9.328125 54.8125 -13.375 
Q 60.59375 -17.4375 67.96875 -18.015625 
L 67.96875 -19.578125 
Q 61.234375 -19.34375 53.5625 -16.875 
Q 45.90625 -14.40625 39.03125 -10.03125 
Q 32.171875 -5.671875 27.203125 -0.734375 
Q 20.171875 2.09375 16.0625 5.28125 
Q 10.109375 10.015625 6.8125 16.921875 
Q 3.515625 23.828125 3.515625 33.25 
Q 3.515625 48.09375 13.125 57.90625 
Q 22.75 67.71875 36.421875 67.71875 
Q 49.421875 67.71875 58.90625 57.875 
Q 68.40625 48.046875 68.40625 33.0625 
Q 68.40625 20.90625 61.640625 11.71875 
Q 54.890625 2.546875 44.046875 -0.734375 
z
M 35.84375 63.96875 
Q 26.953125 63.96875 21.53125 57.625 
Q 14.703125 49.65625 14.703125 33.25 
Q 14.703125 17.1875 21.625 8.5 
Q 27 1.8125 35.84375 1.8125 
Q 45.015625 1.8125 50.640625 8.5 
Q 57.234375 16.40625 57.234375 31.84375 
Q 57.234375 43.703125 53.609375 51.8125 
Q 50.828125 58.0625 46.21875 61.015625 
Q 41.609375 63.96875 35.84375 63.96875 
z
" id="TimesNewRomanPSMT-81"/>
      <path d="M 45.75 22.171875 
L 20.125 22.171875 
L 15.625 11.71875 
Q 13.96875 7.859375 13.96875 5.953125 
Q 13.96875 4.4375 15.40625 3.296875 
Q 16.84375 2.15625 21.625 1.8125 
L 21.625 0 
L 0.78125 0 
L 0.78125 1.8125 
Q 4.9375 2.546875 6.15625 3.71875 
Q 8.640625 6.0625 11.671875 13.234375 
L 34.96875 67.71875 
L 36.671875 67.71875 
L 59.71875 12.640625 
Q 62.5 6 64.765625 4.015625 
Q 67.046875 2.046875 71.09375 1.8125 
L 71.09375 0 
L 44.96875 0 
L 44.96875 1.8125 
Q 48.921875 2 50.3125 3.125 
Q 51.703125 4.25 51.703125 5.859375 
Q 51.703125 8.015625 49.75 12.640625 
z
M 44.390625 25.78125 
L 33.15625 52.546875 
L 21.625 25.78125 
z
" id="TimesNewRomanPSMT-65"/>
      <path d="M 40.921875 0 
L 15.328125 55.71875 
L 15.328125 11.46875 
Q 15.328125 5.375 16.65625 3.859375 
Q 18.453125 1.8125 22.359375 1.8125 
L 24.703125 1.8125 
L 24.703125 0 
L 1.65625 0 
L 1.65625 1.8125 
L 4 1.8125 
Q 8.203125 1.8125 9.96875 4.34375 
Q 11.03125 5.90625 11.03125 11.46875 
L 11.03125 54.734375 
Q 11.03125 59.125 10.0625 61.078125 
Q 9.375 62.5 7.546875 63.453125 
Q 5.71875 64.40625 1.65625 64.40625 
L 1.65625 66.21875 
L 20.40625 66.21875 
L 44.4375 14.40625 
L 68.0625 66.21875 
L 86.8125 66.21875 
L 86.8125 64.40625 
L 84.515625 64.40625 
Q 80.28125 64.40625 78.515625 61.859375 
Q 77.4375 60.296875 77.4375 54.734375 
L 77.4375 11.46875 
Q 77.4375 5.375 78.8125 3.859375 
Q 80.609375 1.8125 84.515625 1.8125 
L 86.8125 1.8125 
L 86.8125 0 
L 58.6875 0 
L 58.6875 1.8125 
L 61.03125 1.8125 
Q 65.28125 1.8125 67 4.34375 
Q 68.0625 5.90625 68.0625 11.46875 
L 68.0625 55.71875 
L 42.53125 0 
z
" id="TimesNewRomanPSMT-77"/>
      <path d="M 68.75 46.78125 
L 63.03125 27.296875 
Q 59.859375 16.359375 59.171875 13.421875 
Q 58.5 10.5 58.5 8.734375 
Q 58.5 7.171875 59.546875 6.09375 
Q 60.59375 5.03125 62.15625 5.03125 
Q 65.71875 5.03125 70.71875 8.59375 
Q 75.734375 12.15625 79.296875 20.15625 
Q 82.859375 28.171875 82.859375 36.859375 
Q 82.859375 45.21875 78.828125 52.296875 
Q 74.8125 59.375 67.453125 63.15625 
Q 60.109375 66.9375 51.21875 66.9375 
Q 39.9375 66.9375 30.265625 60.953125 
Q 20.609375 54.984375 14.96875 43.75 
Q 9.328125 32.515625 9.328125 20.40625 
Q 9.328125 9.1875 14.28125 0 
Q 19.234375 -9.1875 28.21875 -13.890625 
Q 37.203125 -18.609375 47.5625 -18.609375 
Q 60.40625 -18.609375 70.78125 -11.71875 
Q 81.15625 -4.828125 86.8125 8.40625 
L 89.65625 8.40625 
Q 85.25 -4.984375 73.671875 -13.28125 
Q 62.109375 -21.578125 47.3125 -21.578125 
Q 35.6875 -21.578125 25.71875 -16.078125 
Q 15.765625 -10.59375 10.25 -0.5 
Q 4.734375 9.578125 4.734375 21.6875 
Q 4.734375 34.578125 10.78125 45.734375 
Q 16.84375 56.890625 27.75 63.15625 
Q 38.671875 69.4375 50.921875 69.4375 
Q 61.03125 69.4375 69.15625 65.25 
Q 77.296875 61.078125 81.546875 53.046875 
Q 85.796875 45.015625 85.796875 35.984375 
Q 85.796875 27.046875 81.8125 18.28125 
Q 77.828125 9.515625 71.671875 5.515625 
Q 65.53125 1.515625 58.84375 1.515625 
Q 55.125 1.515625 53.25 3.265625 
Q 51.375 5.03125 51.375 8.203125 
Q 51.375 10.9375 52.25 15.375 
Q 45.015625 6.640625 40.671875 4.046875 
Q 36.328125 1.46875 33.015625 1.46875 
Q 29.546875 1.46875 26.859375 4.5625 
Q 24.171875 7.671875 24.171875 12.84375 
Q 24.171875 19.921875 28.78125 28.703125 
Q 33.40625 37.5 41.015625 43.015625 
Q 46.625 47.078125 51.078125 47.078125 
Q 54.34375 47.078125 56.515625 45.390625 
Q 58.6875 43.703125 59.46875 40.328125 
L 61.078125 45.703125 
z
M 51.609375 44.78125 
Q 47.953125 44.78125 44.1875 40.921875 
Q 38.671875 35.25 34.765625 25.640625 
Q 31.890625 18.609375 31.890625 14.3125 
Q 31.890625 11.234375 33.625 9.296875 
Q 35.359375 7.375 37.5 7.375 
Q 40.328125 7.375 43.453125 9.515625 
Q 46.578125 11.671875 50 16.140625 
Q 53.421875 20.609375 54.984375 25.09375 
Q 57.71875 32.859375 57.71875 37.75 
Q 57.71875 40.96875 55.9375 42.875 
Q 54.15625 44.78125 51.609375 44.78125 
z
" id="TimesNewRomanPSMT-64"/>
      <path d="M 34.71875 5.03125 
Q 31.453125 1.609375 28.328125 0.109375 
Q 25.203125 -1.375 21.578125 -1.375 
Q 14.265625 -1.375 8.796875 4.75 
Q 3.328125 10.890625 3.328125 20.515625 
Q 3.328125 30.125 9.375 38.109375 
Q 15.4375 46.09375 24.953125 46.09375 
Q 30.859375 46.09375 34.71875 42.328125 
L 34.71875 50.59375 
Q 34.71875 58.25 34.34375 60 
Q 33.984375 61.765625 33.203125 62.390625 
Q 32.421875 63.03125 31.25 63.03125 
Q 29.984375 63.03125 27.875 62.25 
L 27.25 63.96875 
L 40.578125 69.4375 
L 42.78125 69.4375 
L 42.78125 17.71875 
Q 42.78125 9.859375 43.140625 8.125 
Q 43.5 6.390625 44.3125 5.703125 
Q 45.125 5.03125 46.1875 5.03125 
Q 47.515625 5.03125 49.703125 5.859375 
L 50.25 4.15625 
L 36.96875 -1.375 
L 34.71875 -1.375 
z
M 34.71875 8.453125 
L 34.71875 31.5 
Q 34.421875 34.8125 32.953125 37.546875 
Q 31.5 40.28125 29.078125 41.671875 
Q 26.65625 43.0625 24.359375 43.0625 
Q 20.0625 43.0625 16.703125 39.203125 
Q 12.25 34.125 12.25 24.359375 
Q 12.25 14.5 16.546875 9.25 
Q 20.84375 4 26.125 4 
Q 30.5625 4 34.71875 8.453125 
z
" id="TimesNewRomanPSMT-100"/>
      <path d="M 46.1875 33.796875 
Q 53.078125 32.328125 56.5 29.109375 
Q 61.234375 24.609375 61.234375 18.109375 
Q 61.234375 13.1875 58.109375 8.671875 
Q 54.984375 4.15625 49.53125 2.078125 
Q 44.09375 0 32.90625 0 
L 1.65625 0 
L 1.65625 1.8125 
L 4.15625 1.8125 
Q 8.296875 1.8125 10.109375 4.4375 
Q 11.234375 6.15625 11.234375 11.71875 
L 11.234375 54.5 
Q 11.234375 60.640625 9.8125 62.25 
Q 7.90625 64.40625 4.15625 64.40625 
L 1.65625 64.40625 
L 1.65625 66.21875 
L 30.28125 66.21875 
Q 38.28125 66.21875 43.109375 65.046875 
Q 50.4375 63.28125 54.296875 58.8125 
Q 58.15625 54.34375 58.15625 48.53125 
Q 58.15625 43.5625 55.125 39.625 
Q 52.09375 35.6875 46.1875 33.796875 
z
M 20.609375 36.421875 
Q 22.40625 36.078125 24.71875 35.90625 
Q 27.046875 35.75 29.828125 35.75 
Q 36.96875 35.75 40.546875 37.28125 
Q 44.140625 38.8125 46.046875 41.984375 
Q 47.953125 45.171875 47.953125 48.921875 
Q 47.953125 54.734375 43.21875 58.828125 
Q 38.484375 62.9375 29.390625 62.9375 
Q 24.515625 62.9375 20.609375 61.859375 
z
M 20.609375 4.78125 
Q 26.265625 3.46875 31.78125 3.46875 
Q 40.625 3.46875 45.265625 7.4375 
Q 49.90625 11.421875 49.90625 17.28125 
Q 49.90625 21.140625 47.796875 24.703125 
Q 45.703125 28.265625 40.96875 30.3125 
Q 36.234375 32.375 29.25 32.375 
Q 26.21875 32.375 24.0625 32.265625 
Q 21.921875 32.171875 20.609375 31.9375 
z
" id="TimesNewRomanPSMT-66"/>
     </defs>
     <use xlink:href="#TimesNewRomanPSMT-54"/>
     <use x="50" xlink:href="#TimesNewRomanPSMT-52"/>
     <use x="100" xlink:href="#TimesNewRomanPSMT-81"/>
     <use x="172.216797" xlink:href="#TimesNewRomanPSMT-65"/>
     <use x="244.433594" xlink:href="#TimesNewRomanPSMT-77"/>
     <use x="333.349609" xlink:href="#TimesNewRomanPSMT-64"/>
     <use x="425.439453" xlink:href="#TimesNewRomanPSMT-52"/>
     <use x="475.439453" xlink:href="#TimesNewRomanPSMT-48"/>
     <use x="525.439453" xlink:href="#TimesNewRomanPSMT-100"/>
     <use x="575.439453" xlink:href="#TimesNewRomanPSMT-66"/>
    </g>
   </g>
   <g id="PathCollection_1">
    <defs>
     <path d="M -5.477226 5.477226 
L 5.477226 5.477226 
L 5.477226 -5.477226 
L -5.477226 -5.477226 
z
" id="m959e68a20f" style="stroke:#000000;stroke-opacity:0.9;"/>
    </defs>
    <g clip-path="url(#p91150ccfa6)">
     <use style="fill:#1f77b4;fill-opacity:0.9;stroke:#000000;stroke-opacity:0.9;" x="75.6" xlink:href="#m959e68a20f" y="17.509091"/>
     <use style="fill:#1f77b4;fill-opacity:0.9;stroke:#000000;stroke-opacity:0.9;" x="75.6" xlink:href="#m959e68a20f" y="17.509091"/>
     <use style="fill:#1f77b4;fill-opacity:0.9;stroke:#000000;stroke-opacity:0.9;" x="75.6" xlink:href="#m959e68a20f" y="17.509091"/>
     <use style="fill:#1f77b4;fill-opacity:0.9;stroke:#000000;stroke-opacity:0.9;" x="75.6" xlink:href="#m959e68a20f" y="17.509091"/>
     <use style="fill:#1f77b4;fill-opacity:0.9;stroke:#000000;stroke-opacity:0.9;" x="75.6" xlink:href="#m959e68a20f" y="17.509091"/>
     <use style="fill:#1f77b4;fill-opacity:0.9;stroke:#000000;stroke-opacity:0.9;" x="75.6" xlink:href="#m959e68a20f" y="17.509091"/>
     <use style="fill:#1f77b4;fill-opacity:0.9;stroke:#000000;stroke-opacity:0.9;" x="75.6" xlink:href="#m959e68a20f" y="17.509091"/>
     <use style="fill:#1f77b4;fill-opacity:0.9;stroke:#000000;stroke-opacity:0.9;" x="75.6" xlink:href="#m959e68a20f" y="17.509091"/>
     <use style="fill:#1f77b4;fill-opacity:0.9;stroke:#000000;stroke-opacity:0.9;" x="75.6" xlink:href="#m959e68a20f" y="17.509091"/>
     <use style="fill:#1f77b4;fill-opacity:0.9;stroke:#000000;stroke-opacity:0.9;" x="75.6" xlink:href="#m959e68a20f" y="17.509091"/>
     <use style="fill:#1f77b4;fill-opacity:0.9;stroke:#000000;stroke-opacity:0.9;" x="478.8" xlink:href="#m959e68a20f" y="295.690909"/>
     <use style="fill:#1f77b4;fill-opacity:0.9;stroke:#000000;stroke-opacity:0.9;" x="478.8" xlink:href="#m959e68a20f" y="295.134545"/>
     <use style="fill:#1f77b4;fill-opacity:0.9;stroke:#000000;stroke-opacity:0.9;" x="478.8" xlink:href="#m959e68a20f" y="295.690909"/>
     <use style="fill:#1f77b4;fill-opacity:0.9;stroke:#000000;stroke-opacity:0.9;" x="478.8" xlink:href="#m959e68a20f" y="295.690909"/>
     <use style="fill:#1f77b4;fill-opacity:0.9;stroke:#000000;stroke-opacity:0.9;" x="478.8" xlink:href="#m959e68a20f" y="295.690909"/>
     <use style="fill:#1f77b4;fill-opacity:0.9;stroke:#000000;stroke-opacity:0.9;" x="478.8" xlink:href="#m959e68a20f" y="295.690909"/>
     <use style="fill:#1f77b4;fill-opacity:0.9;stroke:#000000;stroke-opacity:0.9;" x="478.8" xlink:href="#m959e68a20f" y="295.690909"/>
     <use style="fill:#1f77b4;fill-opacity:0.9;stroke:#000000;stroke-opacity:0.9;" x="478.8" xlink:href="#m959e68a20f" y="295.690909"/>
     <use style="fill:#1f77b4;fill-opacity:0.9;stroke:#000000;stroke-opacity:0.9;" x="478.8" xlink:href="#m959e68a20f" y="295.690909"/>
     <use style="fill:#1f77b4;fill-opacity:0.9;stroke:#000000;stroke-opacity:0.9;" x="478.8" xlink:href="#m959e68a20f" y="295.690909"/>
     <use style="fill:#1f77b4;fill-opacity:0.9;stroke:#000000;stroke-opacity:0.9;" x="478.8" xlink:href="#m959e68a20f" y="295.690909"/>
     <use style="fill:#1f77b4;fill-opacity:0.9;stroke:#000000;stroke-opacity:0.9;" x="478.8" xlink:href="#m959e68a20f" y="295.690909"/>
     <use style="fill:#1f77b4;fill-opacity:0.9;stroke:#000000;stroke-opacity:0.9;" x="478.8" xlink:href="#m959e68a20f" y="295.690909"/>
     <use style="fill:#1f77b4;fill-opacity:0.9;stroke:#000000;stroke-opacity:0.9;" x="478.8" xlink:href="#m959e68a20f" y="295.690909"/>
     <use style="fill:#1f77b4;fill-opacity:0.9;stroke:#000000;stroke-opacity:0.9;" x="478.8" xlink:href="#m959e68a20f" y="295.690909"/>
     <use style="fill:#1f77b4;fill-opacity:0.9;stroke:#000000;stroke-opacity:0.9;" x="478.8" xlink:href="#m959e68a20f" y="295.690909"/>
     <use style="fill:#1f77b4;fill-opacity:0.9;stroke:#000000;stroke-opacity:0.9;" x="478.8" xlink:href="#m959e68a20f" y="295.690909"/>
     <use style="fill:#1f77b4;fill-opacity:0.9;stroke:#000000;stroke-opacity:0.9;" x="478.8" xlink:href="#m959e68a20f" y="295.690909"/>
     <use style="fill:#1f77b4;fill-opacity:0.9;stroke:#000000;stroke-opacity:0.9;" x="478.8" xlink:href="#m959e68a20f" y="295.690909"/>
     <use style="fill:#1f77b4;fill-opacity:0.9;stroke:#000000;stroke-opacity:0.9;" x="478.8" xlink:href="#m959e68a20f" y="295.690909"/>
     <use style="fill:#1f77b4;fill-opacity:0.9;stroke:#000000;stroke-opacity:0.9;" x="478.8" xlink:href="#m959e68a20f" y="295.690909"/>
     <use style="fill:#1f77b4;fill-opacity:0.9;stroke:#000000;stroke-opacity:0.9;" x="478.8" xlink:href="#m959e68a20f" y="295.690909"/>
     <use style="fill:#1f77b4;fill-opacity:0.9;stroke:#000000;stroke-opacity:0.9;" x="478.8" xlink:href="#m959e68a20f" y="295.690909"/>
     <use style="fill:#1f77b4;fill-opacity:0.9;stroke:#000000;stroke-opacity:0.9;" x="478.8" xlink:href="#m959e68a20f" y="295.690909"/>
     <use style="fill:#1f77b4;fill-opacity:0.9;stroke:#000000;stroke-opacity:0.9;" x="478.8" xlink:href="#m959e68a20f" y="295.690909"/>
     <use style="fill:#1f77b4;fill-opacity:0.9;stroke:#000000;stroke-opacity:0.9;" x="478.8" xlink:href="#m959e68a20f" y="295.690909"/>
     <use style="fill:#1f77b4;fill-opacity:0.9;stroke:#000000;stroke-opacity:0.9;" x="478.8" xlink:href="#m959e68a20f" y="295.690909"/>
     <use style="fill:#1f77b4;fill-opacity:0.9;stroke:#000000;stroke-opacity:0.9;" x="478.8" xlink:href="#m959e68a20f" y="295.690909"/>
     <use style="fill:#1f77b4;fill-opacity:0.9;stroke:#000000;stroke-opacity:0.9;" x="478.8" xlink:href="#m959e68a20f" y="295.690909"/>
     <use style="fill:#1f77b4;fill-opacity:0.9;stroke:#000000;stroke-opacity:0.9;" x="478.8" xlink:href="#m959e68a20f" y="295.690909"/>
     <use style="fill:#1f77b4;fill-opacity:0.9;stroke:#000000;stroke-opacity:0.9;" x="478.8" xlink:href="#m959e68a20f" y="295.690909"/>
     <use style="fill:#1f77b4;fill-opacity:0.9;stroke:#000000;stroke-opacity:0.9;" x="478.8" xlink:href="#m959e68a20f" y="295.690909"/>
     <use style="fill:#1f77b4;fill-opacity:0.9;stroke:#000000;stroke-opacity:0.9;" x="478.8" xlink:href="#m959e68a20f" y="295.690909"/>
     <use style="fill:#1f77b4;fill-opacity:0.9;stroke:#000000;stroke-opacity:0.9;" x="478.8" xlink:href="#m959e68a20f" y="295.690909"/>
     <use style="fill:#1f77b4;fill-opacity:0.9;stroke:#000000;stroke-opacity:0.9;" x="478.8" xlink:href="#m959e68a20f" y="295.690909"/>
     <use style="fill:#1f77b4;fill-opacity:0.9;stroke:#000000;stroke-opacity:0.9;" x="478.8" xlink:href="#m959e68a20f" y="295.690909"/>
     <use style="fill:#1f77b4;fill-opacity:0.9;stroke:#000000;stroke-opacity:0.9;" x="478.8" xlink:href="#m959e68a20f" y="295.690909"/>
     <use style="fill:#1f77b4;fill-opacity:0.9;stroke:#000000;stroke-opacity:0.9;" x="478.8" xlink:href="#m959e68a20f" y="295.690909"/>
     <use style="fill:#1f77b4;fill-opacity:0.9;stroke:#000000;stroke-opacity:0.9;" x="478.8" xlink:href="#m959e68a20f" y="295.690909"/>
     <use style="fill:#1f77b4;fill-opacity:0.9;stroke:#000000;stroke-opacity:0.9;" x="478.8" xlink:href="#m959e68a20f" y="295.690909"/>
     <use style="fill:#1f77b4;fill-opacity:0.9;stroke:#000000;stroke-opacity:0.9;" x="478.8" xlink:href="#m959e68a20f" y="295.690909"/>
     <use style="fill:#1f77b4;fill-opacity:0.9;stroke:#000000;stroke-opacity:0.9;" x="478.8" xlink:href="#m959e68a20f" y="295.690909"/>
     <use style="fill:#1f77b4;fill-opacity:0.9;stroke:#000000;stroke-opacity:0.9;" x="478.8" xlink:href="#m959e68a20f" y="295.690909"/>
     <use style="fill:#1f77b4;fill-opacity:0.9;stroke:#000000;stroke-opacity:0.9;" x="478.8" xlink:href="#m959e68a20f" y="295.690909"/>
     <use style="fill:#1f77b4;fill-opacity:0.9;stroke:#000000;stroke-opacity:0.9;" x="478.8" xlink:href="#m959e68a20f" y="295.690909"/>
     <use style="fill:#1f77b4;fill-opacity:0.9;stroke:#000000;stroke-opacity:0.9;" x="478.8" xlink:href="#m959e68a20f" y="295.690909"/>
     <use style="fill:#1f77b4;fill-opacity:0.9;stroke:#000000;stroke-opacity:0.9;" x="478.8" xlink:href="#m959e68a20f" y="295.690909"/>
     <use style="fill:#1f77b4;fill-opacity:0.9;stroke:#000000;stroke-opacity:0.9;" x="478.8" xlink:href="#m959e68a20f" y="295.690909"/>
     <use style="fill:#1f77b4;fill-opacity:0.9;stroke:#000000;stroke-opacity:0.9;" x="478.8" xlink:href="#m959e68a20f" y="295.690909"/>
     <use style="fill:#1f77b4;fill-opacity:0.9;stroke:#000000;stroke-opacity:0.9;" x="478.8" xlink:href="#m959e68a20f" y="295.690909"/>
     <use style="fill:#1f77b4;fill-opacity:0.9;stroke:#000000;stroke-opacity:0.9;" x="478.8" xlink:href="#m959e68a20f" y="295.690909"/>
     <use style="fill:#1f77b4;fill-opacity:0.9;stroke:#000000;stroke-opacity:0.9;" x="478.8" xlink:href="#m959e68a20f" y="295.690909"/>
     <use style="fill:#1f77b4;fill-opacity:0.9;stroke:#000000;stroke-opacity:0.9;" x="478.8" xlink:href="#m959e68a20f" y="295.690909"/>
     <use style="fill:#1f77b4;fill-opacity:0.9;stroke:#000000;stroke-opacity:0.9;" x="478.8" xlink:href="#m959e68a20f" y="295.690909"/>
     <use style="fill:#1f77b4;fill-opacity:0.9;stroke:#000000;stroke-opacity:0.9;" x="478.8" xlink:href="#m959e68a20f" y="295.690909"/>
     <use style="fill:#1f77b4;fill-opacity:0.9;stroke:#000000;stroke-opacity:0.9;" x="478.8" xlink:href="#m959e68a20f" y="295.690909"/>
     <use style="fill:#1f77b4;fill-opacity:0.9;stroke:#000000;stroke-opacity:0.9;" x="478.8" xlink:href="#m959e68a20f" y="295.690909"/>
     <use style="fill:#1f77b4;fill-opacity:0.9;stroke:#000000;stroke-opacity:0.9;" x="478.8" xlink:href="#m959e68a20f" y="295.690909"/>
     <use style="fill:#1f77b4;fill-opacity:0.9;stroke:#000000;stroke-opacity:0.9;" x="478.8" xlink:href="#m959e68a20f" y="295.690909"/>
     <use style="fill:#1f77b4;fill-opacity:0.9;stroke:#000000;stroke-opacity:0.9;" x="478.8" xlink:href="#m959e68a20f" y="295.690909"/>
     <use style="fill:#1f77b4;fill-opacity:0.9;stroke:#000000;stroke-opacity:0.9;" x="478.8" xlink:href="#m959e68a20f" y="295.690909"/>
     <use style="fill:#1f77b4;fill-opacity:0.9;stroke:#000000;stroke-opacity:0.9;" x="478.8" xlink:href="#m959e68a20f" y="295.690909"/>
     <use style="fill:#1f77b4;fill-opacity:0.9;stroke:#000000;stroke-opacity:0.9;" x="478.8" xlink:href="#m959e68a20f" y="295.690909"/>
     <use style="fill:#1f77b4;fill-opacity:0.9;stroke:#000000;stroke-opacity:0.9;" x="478.8" xlink:href="#m959e68a20f" y="295.690909"/>
     <use style="fill:#1f77b4;fill-opacity:0.9;stroke:#000000;stroke-opacity:0.9;" x="478.8" xlink:href="#m959e68a20f" y="295.690909"/>
     <use style="fill:#1f77b4;fill-opacity:0.9;stroke:#000000;stroke-opacity:0.9;" x="478.8" xlink:href="#m959e68a20f" y="295.690909"/>
     <use style="fill:#1f77b4;fill-opacity:0.9;stroke:#000000;stroke-opacity:0.9;" x="478.8" xlink:href="#m959e68a20f" y="295.690909"/>
     <use style="fill:#1f77b4;fill-opacity:0.9;stroke:#000000;stroke-opacity:0.9;" x="478.8" xlink:href="#m959e68a20f" y="295.690909"/>
     <use style="fill:#1f77b4;fill-opacity:0.9;stroke:#000000;stroke-opacity:0.9;" x="478.8" xlink:href="#m959e68a20f" y="295.690909"/>
     <use style="fill:#1f77b4;fill-opacity:0.9;stroke:#000000;stroke-opacity:0.9;" x="478.8" xlink:href="#m959e68a20f" y="295.690909"/>
     <use style="fill:#1f77b4;fill-opacity:0.9;stroke:#000000;stroke-opacity:0.9;" x="478.8" xlink:href="#m959e68a20f" y="295.690909"/>
     <use style="fill:#1f77b4;fill-opacity:0.9;stroke:#000000;stroke-opacity:0.9;" x="478.8" xlink:href="#m959e68a20f" y="295.690909"/>
     <use style="fill:#1f77b4;fill-opacity:0.9;stroke:#000000;stroke-opacity:0.9;" x="478.8" xlink:href="#m959e68a20f" y="295.690909"/>
     <use style="fill:#1f77b4;fill-opacity:0.9;stroke:#000000;stroke-opacity:0.9;" x="478.8" xlink:href="#m959e68a20f" y="295.690909"/>
     <use style="fill:#1f77b4;fill-opacity:0.9;stroke:#000000;stroke-opacity:0.9;" x="478.8" xlink:href="#m959e68a20f" y="295.690909"/>
     <use style="fill:#1f77b4;fill-opacity:0.9;stroke:#000000;stroke-opacity:0.9;" x="478.8" xlink:href="#m959e68a20f" y="295.690909"/>
     <use style="fill:#1f77b4;fill-opacity:0.9;stroke:#000000;stroke-opacity:0.9;" x="478.8" xlink:href="#m959e68a20f" y="295.690909"/>
     <use style="fill:#1f77b4;fill-opacity:0.9;stroke:#000000;stroke-opacity:0.9;" x="478.8" xlink:href="#m959e68a20f" y="295.690909"/>
     <use style="fill:#1f77b4;fill-opacity:0.9;stroke:#000000;stroke-opacity:0.9;" x="478.8" xlink:href="#m959e68a20f" y="295.690909"/>
     <use style="fill:#1f77b4;fill-opacity:0.9;stroke:#000000;stroke-opacity:0.9;" x="478.8" xlink:href="#m959e68a20f" y="295.690909"/>
     <use style="fill:#1f77b4;fill-opacity:0.9;stroke:#000000;stroke-opacity:0.9;" x="478.8" xlink:href="#m959e68a20f" y="295.690909"/>
     <use style="fill:#1f77b4;fill-opacity:0.9;stroke:#000000;stroke-opacity:0.9;" x="478.8" xlink:href="#m959e68a20f" y="295.690909"/>
     <use style="fill:#1f77b4;fill-opacity:0.9;stroke:#000000;stroke-opacity:0.9;" x="478.8" xlink:href="#m959e68a20f" y="295.690909"/>
     <use style="fill:#1f77b4;fill-opacity:0.9;stroke:#000000;stroke-opacity:0.9;" x="478.8" xlink:href="#m959e68a20f" y="295.690909"/>
     <use style="fill:#1f77b4;fill-opacity:0.9;stroke:#000000;stroke-opacity:0.9;" x="478.8" xlink:href="#m959e68a20f" y="295.690909"/>
     <use style="fill:#1f77b4;fill-opacity:0.9;stroke:#000000;stroke-opacity:0.9;" x="478.8" xlink:href="#m959e68a20f" y="295.690909"/>
     <use style="fill:#1f77b4;fill-opacity:0.9;stroke:#000000;stroke-opacity:0.9;" x="478.8" xlink:href="#m959e68a20f" y="295.690909"/>
     <use style="fill:#1f77b4;fill-opacity:0.9;stroke:#000000;stroke-opacity:0.9;" x="478.8" xlink:href="#m959e68a20f" y="295.690909"/>
     <use style="fill:#1f77b4;fill-opacity:0.9;stroke:#000000;stroke-opacity:0.9;" x="478.8" xlink:href="#m959e68a20f" y="295.690909"/>
     <use style="fill:#1f77b4;fill-opacity:0.9;stroke:#000000;stroke-opacity:0.9;" x="478.8" xlink:href="#m959e68a20f" y="295.690909"/>
    </g>
   </g>
   <g id="PathCollection_2">
    <defs>
     <path d="M 0 6.324555 
C 1.677292 6.324555 3.286112 5.65816 4.472136 4.472136 
C 5.65816 3.286112 6.324555 1.677292 6.324555 0 
C 6.324555 -1.677292 5.65816 -3.286112 4.472136 -4.472136 
C 3.286112 -5.65816 1.677292 -6.324555 0 -6.324555 
C -1.677292 -6.324555 -3.286112 -5.65816 -4.472136 -4.472136 
C -5.65816 -3.286112 -6.324555 -1.677292 -6.324555 0 
C -6.324555 1.677292 -5.65816 3.286112 -4.472136 4.472136 
C -3.286112 5.65816 -1.677292 6.324555 0 6.324555 
z
" id="mb21c47cf47" style="stroke:#000000;stroke-opacity:0.9;"/>
    </defs>
    <g clip-path="url(#p91150ccfa6)">
     <use style="fill:#ff7f0e;fill-opacity:0.9;stroke:#000000;stroke-opacity:0.9;" x="83.664" xlink:href="#mb21c47cf47" y="168.283636"/>
     <use style="fill:#ff7f0e;fill-opacity:0.9;stroke:#000000;stroke-opacity:0.9;" x="83.664" xlink:href="#mb21c47cf47" y="166.892727"/>
     <use style="fill:#ff7f0e;fill-opacity:0.9;stroke:#000000;stroke-opacity:0.9;" x="83.664" xlink:href="#mb21c47cf47" y="168.561818"/>
     <use style="fill:#ff7f0e;fill-opacity:0.9;stroke:#000000;stroke-opacity:0.9;" x="83.664" xlink:href="#mb21c47cf47" y="166.753636"/>
     <use style="fill:#ff7f0e;fill-opacity:0.9;stroke:#000000;stroke-opacity:0.9;" x="83.664" xlink:href="#mb21c47cf47" y="165.640909"/>
     <use style="fill:#ff7f0e;fill-opacity:0.9;stroke:#000000;stroke-opacity:0.9;" x="83.664" xlink:href="#mb21c47cf47" y="164.25"/>
     <use style="fill:#ff7f0e;fill-opacity:0.9;stroke:#000000;stroke-opacity:0.9;" x="152.208" xlink:href="#mb21c47cf47" y="241.862727"/>
     <use style="fill:#ff7f0e;fill-opacity:0.9;stroke:#000000;stroke-opacity:0.9;" x="152.208" xlink:href="#mb21c47cf47" y="244.088182"/>
     <use style="fill:#ff7f0e;fill-opacity:0.9;stroke:#000000;stroke-opacity:0.9;" x="152.208" xlink:href="#mb21c47cf47" y="241.584545"/>
     <use style="fill:#ff7f0e;fill-opacity:0.9;stroke:#000000;stroke-opacity:0.9;" x="152.208" xlink:href="#mb21c47cf47" y="242.697273"/>
     <use style="fill:#ff7f0e;fill-opacity:0.9;stroke:#000000;stroke-opacity:0.9;" x="152.208" xlink:href="#mb21c47cf47" y="241.584545"/>
     <use style="fill:#ff7f0e;fill-opacity:0.9;stroke:#000000;stroke-opacity:0.9;" x="152.208" xlink:href="#mb21c47cf47" y="241.028182"/>
     <use style="fill:#ff7f0e;fill-opacity:0.9;stroke:#000000;stroke-opacity:0.9;" x="244.944" xlink:href="#mb21c47cf47" y="295.690909"/>
     <use style="fill:#ff7f0e;fill-opacity:0.9;stroke:#000000;stroke-opacity:0.9;" x="244.944" xlink:href="#mb21c47cf47" y="295.690909"/>
     <use style="fill:#ff7f0e;fill-opacity:0.9;stroke:#000000;stroke-opacity:0.9;" x="244.944" xlink:href="#mb21c47cf47" y="295.690909"/>
     <use style="fill:#ff7f0e;fill-opacity:0.9;stroke:#000000;stroke-opacity:0.9;" x="244.944" xlink:href="#mb21c47cf47" y="295.690909"/>
     <use style="fill:#ff7f0e;fill-opacity:0.9;stroke:#000000;stroke-opacity:0.9;" x="244.944" xlink:href="#mb21c47cf47" y="295.690909"/>
     <use style="fill:#ff7f0e;fill-opacity:0.9;stroke:#000000;stroke-opacity:0.9;" x="244.944" xlink:href="#mb21c47cf47" y="295.690909"/>
     <use style="fill:#ff7f0e;fill-opacity:0.9;stroke:#000000;stroke-opacity:0.9;" x="297.36" xlink:href="#mb21c47cf47" y="295.690909"/>
     <use style="fill:#ff7f0e;fill-opacity:0.9;stroke:#000000;stroke-opacity:0.9;" x="297.36" xlink:href="#mb21c47cf47" y="295.690909"/>
     <use style="fill:#ff7f0e;fill-opacity:0.9;stroke:#000000;stroke-opacity:0.9;" x="297.36" xlink:href="#mb21c47cf47" y="295.690909"/>
     <use style="fill:#ff7f0e;fill-opacity:0.9;stroke:#000000;stroke-opacity:0.9;" x="297.36" xlink:href="#mb21c47cf47" y="295.690909"/>
     <use style="fill:#ff7f0e;fill-opacity:0.9;stroke:#000000;stroke-opacity:0.9;" x="297.36" xlink:href="#mb21c47cf47" y="295.690909"/>
     <use style="fill:#ff7f0e;fill-opacity:0.9;stroke:#000000;stroke-opacity:0.9;" x="297.36" xlink:href="#mb21c47cf47" y="295.690909"/>
     <use style="fill:#ff7f0e;fill-opacity:0.9;stroke:#000000;stroke-opacity:0.9;" x="386.064" xlink:href="#mb21c47cf47" y="295.690909"/>
     <use style="fill:#ff7f0e;fill-opacity:0.9;stroke:#000000;stroke-opacity:0.9;" x="386.064" xlink:href="#mb21c47cf47" y="295.690909"/>
     <use style="fill:#ff7f0e;fill-opacity:0.9;stroke:#000000;stroke-opacity:0.9;" x="386.064" xlink:href="#mb21c47cf47" y="295.690909"/>
     <use style="fill:#ff7f0e;fill-opacity:0.9;stroke:#000000;stroke-opacity:0.9;" x="386.064" xlink:href="#mb21c47cf47" y="295.690909"/>
     <use style="fill:#ff7f0e;fill-opacity:0.9;stroke:#000000;stroke-opacity:0.9;" x="386.064" xlink:href="#mb21c47cf47" y="295.690909"/>
     <use style="fill:#ff7f0e;fill-opacity:0.9;stroke:#000000;stroke-opacity:0.9;" x="386.064" xlink:href="#mb21c47cf47" y="295.690909"/>
    </g>
   </g>
   <g id="PathCollection_3">
    <defs>
     <path d="M -4.472136 4.472136 
L 4.472136 4.472136 
L 4.472136 -4.472136 
L -4.472136 -4.472136 
z
" id="me5f6f39963" style="stroke:#ffffff;stroke-opacity:0.8;"/>
    </defs>
    <g clip-path="url(#p91150ccfa6)">
     <use style="fill:#2ca02c;fill-opacity:0.8;stroke:#ffffff;stroke-opacity:0.8;" x="244.944" xlink:href="#me5f6f39963" y="295.690909"/>
     <use style="fill:#2ca02c;fill-opacity:0.8;stroke:#ffffff;stroke-opacity:0.8;" x="152.04672" xlink:href="#me5f6f39963" y="242.975455"/>
     <use style="fill:#2ca02c;fill-opacity:0.8;stroke:#ffffff;stroke-opacity:0.8;" x="75.6" xlink:href="#me5f6f39963" y="157.295455"/>
     <use style="fill:#2ca02c;fill-opacity:0.8;stroke:#ffffff;stroke-opacity:0.8;" x="75.6" xlink:href="#me5f6f39963" y="25.993636"/>
     <use style="fill:#2ca02c;fill-opacity:0.8;stroke:#ffffff;stroke-opacity:0.8;" x="75.6" xlink:href="#me5f6f39963" y="17.648182"/>
     <use style="fill:#2ca02c;fill-opacity:0.8;stroke:#ffffff;stroke-opacity:0.8;" x="244.944" xlink:href="#me5f6f39963" y="295.690909"/>
     <use style="fill:#2ca02c;fill-opacity:0.8;stroke:#ffffff;stroke-opacity:0.8;" x="166.58208" xlink:href="#me5f6f39963" y="245.479091"/>
     <use style="fill:#2ca02c;fill-opacity:0.8;stroke:#ffffff;stroke-opacity:0.8;" x="75.6" xlink:href="#me5f6f39963" y="160.077273"/>
     <use style="fill:#2ca02c;fill-opacity:0.8;stroke:#ffffff;stroke-opacity:0.8;" x="75.6" xlink:href="#me5f6f39963" y="32.809091"/>
     <use style="fill:#2ca02c;fill-opacity:0.8;stroke:#ffffff;stroke-opacity:0.8;" x="75.6" xlink:href="#me5f6f39963" y="17.787273"/>
     <use style="fill:#2ca02c;fill-opacity:0.8;stroke:#ffffff;stroke-opacity:0.8;" x="244.944" xlink:href="#me5f6f39963" y="295.690909"/>
     <use style="fill:#2ca02c;fill-opacity:0.8;stroke:#ffffff;stroke-opacity:0.8;" x="171.0576" xlink:href="#me5f6f39963" y="244.922727"/>
     <use style="fill:#2ca02c;fill-opacity:0.8;stroke:#ffffff;stroke-opacity:0.8;" x="80.39808" xlink:href="#me5f6f39963" y="161.050909"/>
     <use style="fill:#2ca02c;fill-opacity:0.8;stroke:#ffffff;stroke-opacity:0.8;" x="75.6" xlink:href="#me5f6f39963" y="95.121818"/>
     <use style="fill:#2ca02c;fill-opacity:0.8;stroke:#ffffff;stroke-opacity:0.8;" x="75.6" xlink:href="#me5f6f39963" y="18.343636"/>
     <use style="fill:#2ca02c;fill-opacity:0.8;stroke:#ffffff;stroke-opacity:0.8;" x="244.944" xlink:href="#me5f6f39963" y="295.690909"/>
     <use style="fill:#2ca02c;fill-opacity:0.8;stroke:#ffffff;stroke-opacity:0.8;" x="171.70272" xlink:href="#me5f6f39963" y="244.783636"/>
     <use style="fill:#2ca02c;fill-opacity:0.8;stroke:#ffffff;stroke-opacity:0.8;" x="106.38432" xlink:href="#me5f6f39963" y="162.580909"/>
     <use style="fill:#2ca02c;fill-opacity:0.8;stroke:#ffffff;stroke-opacity:0.8;" x="75.6" xlink:href="#me5f6f39963" y="152.983636"/>
     <use style="fill:#2ca02c;fill-opacity:0.8;stroke:#ffffff;stroke-opacity:0.8;" x="75.6" xlink:href="#me5f6f39963" y="45.466364"/>
     <use style="fill:#2ca02c;fill-opacity:0.8;stroke:#ffffff;stroke-opacity:0.8;" x="244.944" xlink:href="#me5f6f39963" y="295.690909"/>
     <use style="fill:#2ca02c;fill-opacity:0.8;stroke:#ffffff;stroke-opacity:0.8;" x="172.04544" xlink:href="#me5f6f39963" y="247.148182"/>
     <use style="fill:#2ca02c;fill-opacity:0.8;stroke:#ffffff;stroke-opacity:0.8;" x="114.58944" xlink:href="#me5f6f39963" y="167.449091"/>
     <use style="fill:#2ca02c;fill-opacity:0.8;stroke:#ffffff;stroke-opacity:0.8;" x="75.6" xlink:href="#me5f6f39963" y="157.017273"/>
     <use style="fill:#2ca02c;fill-opacity:0.8;stroke:#ffffff;stroke-opacity:0.8;" x="75.6" xlink:href="#me5f6f39963" y="83.438182"/>
     <use style="fill:#2ca02c;fill-opacity:0.8;stroke:#ffffff;stroke-opacity:0.8;" x="75.6" xlink:href="#me5f6f39963" y="22.238182"/>
     <use style="fill:#2ca02c;fill-opacity:0.8;stroke:#ffffff;stroke-opacity:0.8;" x="244.944" xlink:href="#me5f6f39963" y="295.690909"/>
     <use style="fill:#2ca02c;fill-opacity:0.8;stroke:#ffffff;stroke-opacity:0.8;" x="172.368" xlink:href="#me5f6f39963" y="247.565455"/>
     <use style="fill:#2ca02c;fill-opacity:0.8;stroke:#ffffff;stroke-opacity:0.8;" x="128.25792" xlink:href="#me5f6f39963" y="201.665455"/>
     <use style="fill:#2ca02c;fill-opacity:0.8;stroke:#ffffff;stroke-opacity:0.8;" x="85.7808" xlink:href="#me5f6f39963" y="158.547273"/>
     <use style="fill:#2ca02c;fill-opacity:0.8;stroke:#ffffff;stroke-opacity:0.8;" x="75.6" xlink:href="#me5f6f39963" y="104.301818"/>
     <use style="fill:#2ca02c;fill-opacity:0.8;stroke:#ffffff;stroke-opacity:0.8;" x="75.6" xlink:href="#me5f6f39963" y="32.67"/>
     <use style="fill:#2ca02c;fill-opacity:0.8;stroke:#ffffff;stroke-opacity:0.8;" x="75.6" xlink:href="#me5f6f39963" y="20.847273"/>
     <use style="fill:#2ca02c;fill-opacity:0.8;stroke:#ffffff;stroke-opacity:0.8;" x="244.944" xlink:href="#me5f6f39963" y="295.690909"/>
     <use style="fill:#2ca02c;fill-opacity:0.8;stroke:#ffffff;stroke-opacity:0.8;" x="172.368" xlink:href="#me5f6f39963" y="251.599091"/>
     <use style="fill:#2ca02c;fill-opacity:0.8;stroke:#ffffff;stroke-opacity:0.8;" x="136.08" xlink:href="#me5f6f39963" y="234.63"/>
     <use style="fill:#2ca02c;fill-opacity:0.8;stroke:#ffffff;stroke-opacity:0.8;" x="103.34016" xlink:href="#me5f6f39963" y="192.346364"/>
     <use style="fill:#2ca02c;fill-opacity:0.8;stroke:#ffffff;stroke-opacity:0.8;" x="75.6" xlink:href="#me5f6f39963" y="159.66"/>
     <use style="fill:#2ca02c;fill-opacity:0.8;stroke:#ffffff;stroke-opacity:0.8;" x="75.6" xlink:href="#me5f6f39963" y="125.721818"/>
     <use style="fill:#2ca02c;fill-opacity:0.8;stroke:#ffffff;stroke-opacity:0.8;" x="75.6" xlink:href="#me5f6f39963" y="25.993636"/>
     <use style="fill:#2ca02c;fill-opacity:0.8;stroke:#ffffff;stroke-opacity:0.8;" x="244.944" xlink:href="#me5f6f39963" y="295.690909"/>
     <use style="fill:#2ca02c;fill-opacity:0.8;stroke:#ffffff;stroke-opacity:0.8;" x="172.368" xlink:href="#me5f6f39963" y="251.46"/>
     <use style="fill:#2ca02c;fill-opacity:0.8;stroke:#ffffff;stroke-opacity:0.8;" x="136.08" xlink:href="#me5f6f39963" y="235.186364"/>
     <use style="fill:#2ca02c;fill-opacity:0.8;stroke:#ffffff;stroke-opacity:0.8;" x="103.824" xlink:href="#me5f6f39963" y="199.022727"/>
     <use style="fill:#2ca02c;fill-opacity:0.8;stroke:#ffffff;stroke-opacity:0.8;" x="81.56736" xlink:href="#me5f6f39963" y="162.72"/>
     <use style="fill:#2ca02c;fill-opacity:0.8;stroke:#ffffff;stroke-opacity:0.8;" x="75.6" xlink:href="#me5f6f39963" y="157.434545"/>
     <use style="fill:#2ca02c;fill-opacity:0.8;stroke:#ffffff;stroke-opacity:0.8;" x="75.6" xlink:href="#me5f6f39963" y="39.346364"/>
     <use style="fill:#2ca02c;fill-opacity:0.8;stroke:#ffffff;stroke-opacity:0.8;" x="244.944" xlink:href="#me5f6f39963" y="295.690909"/>
     <use style="fill:#2ca02c;fill-opacity:0.8;stroke:#ffffff;stroke-opacity:0.8;" x="172.368" xlink:href="#me5f6f39963" y="249.93"/>
     <use style="fill:#2ca02c;fill-opacity:0.8;stroke:#ffffff;stroke-opacity:0.8;" x="136.08" xlink:href="#me5f6f39963" y="235.742727"/>
     <use style="fill:#2ca02c;fill-opacity:0.8;stroke:#ffffff;stroke-opacity:0.8;" x="103.824" xlink:href="#me5f6f39963" y="199.579091"/>
     <use style="fill:#2ca02c;fill-opacity:0.8;stroke:#ffffff;stroke-opacity:0.8;" x="83.664" xlink:href="#me5f6f39963" y="164.389091"/>
     <use style="fill:#2ca02c;fill-opacity:0.8;stroke:#ffffff;stroke-opacity:0.8;" x="75.6" xlink:href="#me5f6f39963" y="157.851818"/>
     <use style="fill:#2ca02c;fill-opacity:0.8;stroke:#ffffff;stroke-opacity:0.8;" x="75.6" xlink:href="#me5f6f39963" y="115.011818"/>
    </g>
   </g>
   <g id="patch_7">
    <path d="M 287.700654 241.024423 
Q 266.939511 267.568565 246.867164 293.232049 
" style="fill:none;stroke:#000000;stroke-linecap:round;"/>
    <path d="M 252.11875 290.737886 
L 246.867164 293.232049 
L 248.022785 287.534283 
" style="fill:none;stroke:#000000;stroke-linecap:round;"/>
   </g>
   <g id="text_10">
    <!-- OCSVM -->
    <g transform="translate(294.401328 171.989389)scale(0.13 -0.13)">
     <defs>
      <path d="M 36.578125 67.71875 
Q 49.46875 67.71875 58.90625 57.921875 
Q 68.359375 48.140625 68.359375 33.5 
Q 68.359375 18.40625 58.828125 8.4375 
Q 49.3125 -1.515625 35.796875 -1.515625 
Q 22.125 -1.515625 12.8125 8.203125 
Q 3.515625 17.921875 3.515625 33.34375 
Q 3.515625 49.125 14.265625 59.078125 
Q 23.578125 67.71875 36.578125 67.71875 
z
M 35.640625 64.15625 
Q 26.765625 64.15625 21.390625 57.5625 
Q 14.703125 49.359375 14.703125 33.546875 
Q 14.703125 17.328125 21.625 8.59375 
Q 26.953125 1.953125 35.6875 1.953125 
Q 45.015625 1.953125 51.09375 9.21875 
Q 57.171875 16.5 57.171875 32.171875 
Q 57.171875 49.171875 50.484375 57.515625 
Q 45.125 64.15625 35.640625 64.15625 
z
" id="TimesNewRomanPSMT-79"/>
      <path d="M 60.203125 67.71875 
L 61.71875 45.21875 
L 60.203125 45.21875 
Q 57.171875 55.328125 51.5625 59.765625 
Q 45.953125 64.203125 38.09375 64.203125 
Q 31.5 64.203125 26.171875 60.859375 
Q 20.84375 57.515625 17.796875 50.1875 
Q 14.75 42.875 14.75 31.984375 
Q 14.75 23 17.625 16.40625 
Q 20.515625 9.8125 26.296875 6.296875 
Q 32.078125 2.78125 39.5 2.78125 
Q 45.953125 2.78125 50.875 5.53125 
Q 55.8125 8.296875 61.71875 16.5 
L 63.234375 15.53125 
Q 58.25 6.6875 51.609375 2.578125 
Q 44.96875 -1.515625 35.84375 -1.515625 
Q 19.390625 -1.515625 10.359375 10.6875 
Q 3.609375 19.78125 3.609375 32.078125 
Q 3.609375 42 8.046875 50.296875 
Q 12.5 58.59375 20.28125 63.15625 
Q 28.078125 67.71875 37.3125 67.71875 
Q 44.484375 67.71875 51.46875 64.203125 
Q 53.515625 63.140625 54.390625 63.140625 
Q 55.71875 63.140625 56.6875 64.0625 
Q 57.953125 65.375 58.5 67.71875 
z
" id="TimesNewRomanPSMT-67"/>
      <path d="M 45.84375 67.71875 
L 45.84375 44.828125 
L 44.046875 44.828125 
Q 43.171875 51.421875 40.890625 55.328125 
Q 38.625 59.234375 34.421875 61.515625 
Q 30.21875 63.8125 25.734375 63.8125 
Q 20.65625 63.8125 17.328125 60.71875 
Q 14.015625 57.625 14.015625 53.65625 
Q 14.015625 50.640625 16.109375 48.140625 
Q 19.140625 44.484375 30.515625 38.375 
Q 39.796875 33.40625 43.1875 30.734375 
Q 46.578125 28.078125 48.40625 24.453125 
Q 50.25 20.84375 50.25 16.890625 
Q 50.25 9.375 44.40625 3.921875 
Q 38.578125 -1.515625 29.390625 -1.515625 
Q 26.515625 -1.515625 23.96875 -1.078125 
Q 22.46875 -0.828125 17.703125 0.703125 
Q 12.9375 2.25 11.671875 2.25 
Q 10.453125 2.25 9.734375 1.515625 
Q 9.03125 0.78125 8.6875 -1.515625 
L 6.890625 -1.515625 
L 6.890625 21.1875 
L 8.6875 21.1875 
Q 9.96875 14.0625 12.109375 10.515625 
Q 14.265625 6.984375 18.671875 4.640625 
Q 23.09375 2.296875 28.375 2.296875 
Q 34.46875 2.296875 38 5.515625 
Q 41.546875 8.734375 41.546875 13.140625 
Q 41.546875 15.578125 40.203125 18.0625 
Q 38.875 20.5625 36.03125 22.703125 
Q 34.125 24.171875 25.625 28.921875 
Q 17.140625 33.6875 13.546875 36.515625 
Q 9.96875 39.359375 8.109375 42.765625 
Q 6.25 46.1875 6.25 50.296875 
Q 6.25 57.421875 11.71875 62.5625 
Q 17.1875 67.71875 25.640625 67.71875 
Q 30.90625 67.71875 36.8125 65.140625 
Q 39.546875 63.921875 40.671875 63.921875 
Q 41.9375 63.921875 42.75 64.671875 
Q 43.5625 65.4375 44.046875 67.71875 
z
" id="TimesNewRomanPSMT-83"/>
      <path d="M 71 66.21875 
L 71 64.40625 
Q 67.484375 63.765625 65.671875 62.15625 
Q 63.09375 59.765625 61.078125 54.828125 
L 37.984375 -1.515625 
L 36.1875 -1.515625 
L 11.375 55.5625 
Q 9.46875 59.96875 8.6875 60.9375 
Q 7.46875 62.453125 5.6875 63.296875 
Q 3.90625 64.15625 0.875 64.40625 
L 0.875 66.21875 
L 27.9375 66.21875 
L 27.9375 64.40625 
Q 23.34375 63.96875 21.96875 62.84375 
Q 20.609375 61.71875 20.609375 59.96875 
Q 20.609375 57.515625 22.859375 52.34375 
L 39.703125 13.53125 
L 55.328125 51.859375 
Q 57.625 57.515625 57.625 59.71875 
Q 57.625 61.140625 56.203125 62.421875 
Q 54.78125 63.71875 51.421875 64.265625 
Q 51.171875 64.3125 50.59375 64.40625 
L 50.59375 66.21875 
z
" id="TimesNewRomanPSMT-86"/>
     </defs>
     <use xlink:href="#TimesNewRomanPSMT-79"/>
     <use x="72.216797" xlink:href="#TimesNewRomanPSMT-67"/>
     <use x="138.916016" xlink:href="#TimesNewRomanPSMT-83"/>
     <use x="194.53125" xlink:href="#TimesNewRomanPSMT-86"/>
     <use x="266.748047" xlink:href="#TimesNewRomanPSMT-77"/>
    </g>
    <!-- $k{=}$linear -->
    <g transform="translate(290.935 185.60242)scale(0.13 -0.13)">
     <defs>
      <path d="M 18.3125 75.984375 
L 27.296875 75.984375 
L 18.703125 31.6875 
L 49.515625 54.6875 
L 61.1875 54.6875 
L 26.8125 28.515625 
L 51.90625 0 
L 41.015625 0 
L 17.671875 26.703125 
L 12.5 0 
L 3.515625 0 
z
" id="DejaVuSans-Oblique-107"/>
      <path d="M 10.59375 45.40625 
L 73.1875 45.40625 
L 73.1875 37.203125 
L 10.59375 37.203125 
z
M 10.59375 25.484375 
L 73.1875 25.484375 
L 73.1875 17.1875 
L 10.59375 17.1875 
z
" id="DejaVuSans-61"/>
     </defs>
     <use transform="translate(0 0.015625)" xlink:href="#DejaVuSans-Oblique-107"/>
     <use transform="translate(77.392578 0.015625)" xlink:href="#DejaVuSans-61"/>
     <use transform="translate(180.664062 0.015625)" xlink:href="#TimesNewRomanPSMT-108"/>
     <use transform="translate(208.447266 0.015625)" xlink:href="#TimesNewRomanPSMT-105"/>
     <use transform="translate(236.230469 0.015625)" xlink:href="#TimesNewRomanPSMT-110"/>
     <use transform="translate(286.230469 0.015625)" xlink:href="#TimesNewRomanPSMT-101"/>
     <use transform="translate(330.615234 0.015625)" xlink:href="#TimesNewRomanPSMT-97"/>
     <use transform="translate(375 0.015625)" xlink:href="#TimesNewRomanPSMT-114"/>
    </g>
    <!-- $\nu{\leq}1$ -->
    <g transform="translate(301.725 199.215452)scale(0.13 -0.13)">
     <defs>
      <path d="M 14.984375 0 
L 8.9375 54.6875 
L 18.609375 54.6875 
L 23.78125 8.796875 
Q 30.8125 14.84375 37.359375 23.25 
Q 42.28125 29.546875 43.5625 35.015625 
Q 44.140625 37.59375 43.890625 42.484375 
Q 43.65625 48.296875 39.75 54.6875 
L 48.828125 54.6875 
L 48.828125 54.6875 
Q 51.375 50.34375 52.390625 44.28125 
Q 53.375 38.71875 52.640625 34.90625 
Q 50.78125 25.34375 42.484375 16.796875 
Q 31.640625 5.671875 24.5625 0 
z
" id="DejaVuSans-Oblique-957"/>
      <path d="M 73.1875 49.609375 
L 26.3125 36.078125 
L 73.1875 22.703125 
L 73.1875 14.015625 
L 10.59375 31.984375 
L 10.59375 40.28125 
L 73.1875 58.203125 
z
M 10.59375 8.296875 
L 73.1875 8.296875 
L 73.1875 0 
L 10.59375 0 
z
" id="DejaVuSans-8804"/>
      <path d="M 12.40625 8.296875 
L 28.515625 8.296875 
L 28.515625 63.921875 
L 10.984375 60.40625 
L 10.984375 69.390625 
L 28.421875 72.90625 
L 38.28125 72.90625 
L 38.28125 8.296875 
L 54.390625 8.296875 
L 54.390625 0 
L 12.40625 0 
z
" id="DejaVuSans-49"/>
     </defs>
     <use transform="translate(0 0.09375)" xlink:href="#DejaVuSans-Oblique-957"/>
     <use transform="translate(75.341797 0.09375)" xlink:href="#DejaVuSans-8804"/>
     <use transform="translate(178.613281 0.09375)" xlink:href="#DejaVuSans-49"/>
    </g>
    <!-- $\gamma{=}$0.3 -->
    <g transform="translate(297.565 212.828483)scale(0.13 -0.13)">
     <defs>
      <path d="M 23.296875 46.09375 
L 28.71875 12.3125 
L 54 54.6875 
L 63.53125 54.6875 
L 30.8125 0 
L 26.765625 -20.796875 
L 17.78125 -20.796875 
L 21.828125 0 
L 15.4375 40.828125 
Q 14.453125 46.96875 9.8125 46.96875 
L 7.421875 46.96875 
L 8.890625 54.6875 
L 12.3125 54.6875 
Q 21.921875 54.6875 23.296875 46.09375 
z
" id="DejaVuSans-Oblique-947"/>
      <path d="M 5.078125 53.609375 
Q 7.90625 60.296875 12.21875 63.9375 
Q 16.546875 67.578125 23 67.578125 
Q 30.953125 67.578125 35.203125 62.40625 
Q 38.421875 58.546875 38.421875 54.15625 
Q 38.421875 46.921875 29.34375 39.203125 
Q 35.453125 36.8125 38.578125 32.375 
Q 41.703125 27.9375 41.703125 21.921875 
Q 41.703125 13.328125 36.234375 7.03125 
Q 29.109375 -1.171875 15.578125 -1.171875 
Q 8.890625 -1.171875 6.46875 0.484375 
Q 4.046875 2.15625 4.046875 4.046875 
Q 4.046875 5.46875 5.1875 6.546875 
Q 6.34375 7.625 7.953125 7.625 
Q 9.1875 7.625 10.453125 7.234375 
Q 11.28125 6.984375 14.203125 5.4375 
Q 17.140625 3.90625 18.265625 3.609375 
Q 20.0625 3.078125 22.125 3.078125 
Q 27.09375 3.078125 30.78125 6.9375 
Q 34.46875 10.796875 34.46875 16.0625 
Q 34.46875 19.921875 32.765625 23.578125 
Q 31.5 26.3125 29.984375 27.734375 
Q 27.875 29.6875 24.21875 31.265625 
Q 20.5625 32.859375 16.75 32.859375 
L 15.1875 32.859375 
L 15.1875 34.328125 
Q 19.046875 34.8125 22.921875 37.109375 
Q 26.8125 39.40625 28.5625 42.625 
Q 30.328125 45.84375 30.328125 49.703125 
Q 30.328125 54.734375 27.171875 57.828125 
Q 24.03125 60.9375 19.34375 60.9375 
Q 11.765625 60.9375 6.6875 52.828125 
z
" id="TimesNewRomanPSMT-51"/>
     </defs>
     <use transform="translate(0 0.421875)" xlink:href="#DejaVuSans-Oblique-947"/>
     <use transform="translate(78.662109 0.421875)" xlink:href="#DejaVuSans-61"/>
     <use transform="translate(181.933594 0.421875)" xlink:href="#TimesNewRomanPSMT-48"/>
     <use transform="translate(231.933594 0.421875)" xlink:href="#TimesNewRomanPSMT-46"/>
     <use transform="translate(256.933594 0.421875)" xlink:href="#TimesNewRomanPSMT-51"/>
    </g>
    <!-- fpr=0.420 -->
    <g transform="translate(291.651016 226.441514)scale(0.13 -0.13)">
     <defs>
      <path d="M 20.609375 41.21875 
L 20.609375 11.8125 
Q 20.609375 5.5625 21.96875 3.90625 
Q 23.78125 1.765625 26.8125 1.765625 
L 30.859375 1.765625 
L 30.859375 0 
L 4.15625 0 
L 4.15625 1.765625 
L 6.15625 1.765625 
Q 8.109375 1.765625 9.71875 2.734375 
Q 11.328125 3.71875 11.9375 5.375 
Q 12.546875 7.03125 12.546875 11.8125 
L 12.546875 41.21875 
L 3.859375 41.21875 
L 3.859375 44.734375 
L 12.546875 44.734375 
L 12.546875 47.65625 
Q 12.546875 54.34375 14.6875 58.984375 
Q 16.84375 63.625 21.265625 66.484375 
Q 25.6875 69.34375 31.203125 69.34375 
Q 36.328125 69.34375 40.625 66.015625 
Q 43.453125 63.8125 43.453125 61.078125 
Q 43.453125 59.625 42.1875 58.328125 
Q 40.921875 57.03125 39.453125 57.03125 
Q 38.328125 57.03125 37.078125 57.828125 
Q 35.84375 58.640625 34.03125 61.296875 
Q 32.234375 63.96875 30.71875 64.890625 
Q 29.203125 65.828125 27.34375 65.828125 
Q 25.09375 65.828125 23.53125 64.625 
Q 21.96875 63.421875 21.28125 60.90625 
Q 20.609375 58.40625 20.609375 47.953125 
L 20.609375 44.734375 
L 32.125 44.734375 
L 32.125 41.21875 
z
" id="TimesNewRomanPSMT-102"/>
      <path d="M 1.8125 43.109375 
L 54.5 43.109375 
L 54.5 39.109375 
L 1.8125 39.109375 
z
M 1.8125 27.203125 
L 54.5 27.203125 
L 54.5 23.1875 
L 1.8125 23.1875 
z
" id="TimesNewRomanPSMT-61"/>
      <path d="M 45.84375 12.75 
L 41.21875 0 
L 2.15625 0 
L 2.15625 1.8125 
Q 19.390625 17.53125 26.421875 27.484375 
Q 33.453125 37.453125 33.453125 45.703125 
Q 33.453125 52 29.59375 56.046875 
Q 25.734375 60.109375 20.359375 60.109375 
Q 15.484375 60.109375 11.59375 57.25 
Q 7.71875 54.390625 5.859375 48.875 
L 4.046875 48.875 
Q 5.28125 57.90625 10.328125 62.734375 
Q 15.375 67.578125 22.953125 67.578125 
Q 31 67.578125 36.390625 62.40625 
Q 41.796875 57.234375 41.796875 50.203125 
Q 41.796875 45.171875 39.453125 40.140625 
Q 35.84375 32.234375 27.734375 23.390625 
Q 15.578125 10.109375 12.546875 7.375 
L 29.828125 7.375 
Q 35.109375 7.375 37.234375 7.765625 
Q 39.359375 8.15625 41.0625 9.34375 
Q 42.78125 10.546875 44.046875 12.75 
z
" id="TimesNewRomanPSMT-50"/>
     </defs>
     <use xlink:href="#TimesNewRomanPSMT-102"/>
     <use x="33.300781" xlink:href="#TimesNewRomanPSMT-112"/>
     <use x="83.300781" xlink:href="#TimesNewRomanPSMT-114"/>
     <use x="116.601562" xlink:href="#TimesNewRomanPSMT-61"/>
     <use x="172.998047" xlink:href="#TimesNewRomanPSMT-48"/>
     <use x="222.998047" xlink:href="#TimesNewRomanPSMT-46"/>
     <use x="247.998047" xlink:href="#TimesNewRomanPSMT-52"/>
     <use x="297.998047" xlink:href="#TimesNewRomanPSMT-50"/>
     <use x="347.998047" xlink:href="#TimesNewRomanPSMT-48"/>
    </g>
    <!-- fnr=0.000 -->
    <g transform="translate(291.651016 240.054545)scale(0.13 -0.13)">
     <use xlink:href="#TimesNewRomanPSMT-102"/>
     <use x="33.300781" xlink:href="#TimesNewRomanPSMT-110"/>
     <use x="83.300781" xlink:href="#TimesNewRomanPSMT-114"/>
     <use x="116.601562" xlink:href="#TimesNewRomanPSMT-61"/>
     <use x="172.998047" xlink:href="#TimesNewRomanPSMT-48"/>
     <use x="222.998047" xlink:href="#TimesNewRomanPSMT-46"/>
     <use x="247.998047" xlink:href="#TimesNewRomanPSMT-48"/>
     <use x="297.998047" xlink:href="#TimesNewRomanPSMT-48"/>
     <use x="347.998047" xlink:href="#TimesNewRomanPSMT-48"/>
    </g>
   </g>
   <g id="patch_8">
    <path d="M 174.108154 149.274859 
Q 209.090487 221.582529 243.585907 292.883762 
" style="fill:none;stroke:#000000;stroke-linecap:round;"/>
    <path d="M 243.661746 287.07048 
L 243.585907 292.883762 
L 238.980785 289.335121 
" style="fill:none;stroke:#000000;stroke-linecap:round;"/>
   </g>
   <g id="text_11">
    <!-- DBSCAN-AE -->
    <g transform="translate(119.042734 88.238784)scale(0.13 -0.13)">
     <defs>
      <path d="M 1.703125 0 
L 1.703125 1.8125 
L 4.203125 1.8125 
Q 8.40625 1.8125 10.15625 4.5 
Q 11.234375 6.109375 11.234375 11.71875 
L 11.234375 54.5 
Q 11.234375 60.6875 9.859375 62.25 
Q 7.953125 64.40625 4.203125 64.40625 
L 1.703125 64.40625 
L 1.703125 66.21875 
L 28.65625 66.21875 
Q 43.5 66.21875 51.234375 62.84375 
Q 58.984375 59.46875 63.6875 51.609375 
Q 68.40625 43.75 68.40625 33.453125 
Q 68.40625 19.625 60.015625 10.359375 
Q 50.59375 0 31.296875 0 
z
M 20.609375 4.78125 
Q 26.8125 3.421875 31 3.421875 
Q 42.328125 3.421875 49.796875 11.375 
Q 57.28125 19.34375 57.28125 32.953125 
Q 57.28125 46.6875 49.796875 54.59375 
Q 42.328125 62.5 30.609375 62.5 
Q 26.21875 62.5 20.609375 61.078125 
z
" id="TimesNewRomanPSMT-68"/>
      <path d="M -1.3125 66.21875 
L 16.65625 66.21875 
L 57.125 16.546875 
L 57.125 54.734375 
Q 57.125 60.84375 55.765625 62.359375 
Q 53.953125 64.40625 50.046875 64.40625 
L 47.75 64.40625 
L 47.75 66.21875 
L 70.796875 66.21875 
L 70.796875 64.40625 
L 68.453125 64.40625 
Q 64.265625 64.40625 62.5 61.859375 
Q 61.421875 60.296875 61.421875 54.734375 
L 61.421875 -1.078125 
L 59.671875 -1.078125 
L 16.015625 52.25 
L 16.015625 11.46875 
Q 16.015625 5.375 17.328125 3.859375 
Q 19.1875 1.8125 23.046875 1.8125 
L 25.390625 1.8125 
L 25.390625 0 
L 2.34375 0 
L 2.34375 1.8125 
L 4.640625 1.8125 
Q 8.890625 1.8125 10.640625 4.34375 
Q 11.71875 5.90625 11.71875 11.46875 
L 11.71875 57.515625 
Q 8.84375 60.890625 7.34375 61.953125 
Q 5.859375 63.03125 2.984375 63.96875 
Q 1.5625 64.40625 -1.3125 64.40625 
z
" id="TimesNewRomanPSMT-78"/>
      <path d="M 4.046875 26.125 
L 29.296875 26.125 
L 29.296875 18.75 
L 4.046875 18.75 
z
" id="TimesNewRomanPSMT-45"/>
      <path d="M 20.90625 62.59375 
L 20.90625 36.421875 
L 35.453125 36.421875 
Q 41.109375 36.421875 43.015625 38.140625 
Q 45.5625 40.375 45.84375 46.046875 
L 47.65625 46.046875 
L 47.65625 23 
L 45.84375 23 
Q 45.171875 27.828125 44.484375 29.203125 
Q 43.609375 30.90625 41.59375 31.875 
Q 39.59375 32.859375 35.453125 32.859375 
L 20.90625 32.859375 
L 20.90625 11.03125 
Q 20.90625 6.640625 21.296875 5.6875 
Q 21.6875 4.734375 22.65625 4.171875 
Q 23.640625 3.609375 26.375 3.609375 
L 37.59375 3.609375 
Q 43.21875 3.609375 45.75 4.390625 
Q 48.296875 5.171875 50.640625 7.46875 
Q 53.65625 10.5 56.84375 16.609375 
L 58.796875 16.609375 
L 53.078125 0 
L 2.046875 0 
L 2.046875 1.8125 
L 4.390625 1.8125 
Q 6.734375 1.8125 8.84375 2.9375 
Q 10.40625 3.71875 10.96875 5.28125 
Q 11.53125 6.84375 11.53125 11.671875 
L 11.53125 54.6875 
Q 11.53125 60.984375 10.25 62.453125 
Q 8.5 64.40625 4.390625 64.40625 
L 2.046875 64.40625 
L 2.046875 66.21875 
L 53.078125 66.21875 
L 53.8125 51.703125 
L 51.90625 51.703125 
Q 50.875 56.9375 49.625 58.890625 
Q 48.390625 60.84375 45.953125 61.859375 
Q 44 62.59375 39.0625 62.59375 
z
" id="TimesNewRomanPSMT-69"/>
     </defs>
     <use xlink:href="#TimesNewRomanPSMT-68"/>
     <use x="72.216797" xlink:href="#TimesNewRomanPSMT-66"/>
     <use x="138.916016" xlink:href="#TimesNewRomanPSMT-83"/>
     <use x="194.53125" xlink:href="#TimesNewRomanPSMT-67"/>
     <use x="261.230469" xlink:href="#TimesNewRomanPSMT-65"/>
     <use x="333.447266" xlink:href="#TimesNewRomanPSMT-78"/>
     <use x="405.664062" xlink:href="#TimesNewRomanPSMT-45"/>
     <use x="438.964844" xlink:href="#TimesNewRomanPSMT-65"/>
     <use x="511.181641" xlink:href="#TimesNewRomanPSMT-69"/>
    </g>
    <!-- $M{\geq}$4 -->
    <g transform="translate(139.34 101.851815)scale(0.13 -0.13)">
     <defs>
      <path d="M 16.890625 72.90625 
L 31.6875 72.90625 
L 40.1875 23.78125 
L 68.40625 72.90625 
L 83.59375 72.90625 
L 69.390625 0 
L 59.8125 0 
L 72.21875 63.921875 
L 43.609375 14.015625 
L 33.984375 14.015625 
L 24.703125 64.109375 
L 12.3125 0 
L 2.6875 0 
z
" id="DejaVuSans-Oblique-77"/>
      <path d="M 10.59375 49.609375 
L 10.59375 58.203125 
L 73.1875 40.28125 
L 73.1875 31.984375 
L 10.59375 14.015625 
L 10.59375 22.703125 
L 57.515625 36.078125 
z
M 73.1875 8.296875 
L 73.1875 0 
L 10.59375 0 
L 10.59375 8.296875 
z
" id="DejaVuSans-8805"/>
     </defs>
     <use transform="translate(0 0.09375)" xlink:href="#DejaVuSans-Oblique-77"/>
     <use transform="translate(105.761719 0.09375)" xlink:href="#DejaVuSans-8805"/>
     <use transform="translate(209.033203 0.09375)" xlink:href="#TimesNewRomanPSMT-52"/>
    </g>
    <!-- $\epsilon{=}$0.1 -->
    <g transform="translate(136.61 115.464847)scale(0.13 -0.13)">
     <defs>
      <path d="M 19.734375 29.5 
Q 14.453125 30.671875 12.15625 33.84375 
Q 10.453125 36.078125 10.453125 39.109375 
Q 10.453125 47.40625 18.359375 52.25 
Q 24.609375 56.0625 34.1875 56.0625 
Q 37.890625 56.0625 41.9375 55.46875 
Q 46 54.890625 50.53125 53.71875 
L 48.96875 45.5625 
Q 44.484375 46.96875 40.71875 47.609375 
Q 36.859375 48.25 33.40625 48.25 
Q 27.59375 48.25 23.78125 46 
Q 19.1875 43.3125 19.1875 39.40625 
Q 19.1875 36.8125 21.578125 35.015625 
Q 24.421875 32.859375 30.078125 32.859375 
L 37.640625 32.859375 
L 36.234375 25.4375 
L 29 25.4375 
Q 22.265625 25.4375 18.3125 22.953125 
Q 12.9375 19.578125 12.9375 14.3125 
Q 12.9375 10.984375 15.828125 8.796875 
Q 19.4375 6.0625 26.8125 6.0625 
Q 31.34375 6.0625 35.6875 6.9375 
Q 40.046875 7.859375 43.84375 9.671875 
L 42.1875 1.3125 
Q 37.546875 -0.046875 33.296875 -0.734375 
Q 29.046875 -1.421875 25.140625 -1.421875 
Q 13.53125 -1.421875 8.0625 3.03125 
Q 3.90625 6.453125 3.90625 12.203125 
Q 3.90625 19.96875 9.375 24.75 
Q 13.421875 28.328125 19.734375 29.5 
z
" id="DejaVuSans-Oblique-949"/>
     </defs>
     <use transform="translate(0 0.421875)" xlink:href="#DejaVuSans-Oblique-949"/>
     <use transform="translate(73.535156 0.421875)" xlink:href="#DejaVuSans-61"/>
     <use transform="translate(176.806641 0.421875)" xlink:href="#TimesNewRomanPSMT-48"/>
     <use transform="translate(226.806641 0.421875)" xlink:href="#TimesNewRomanPSMT-46"/>
     <use transform="translate(251.806641 0.421875)" xlink:href="#TimesNewRomanPSMT-49"/>
    </g>
    <!-- fpr=0.420 -->
    <g transform="translate(130.371016 129.077878)scale(0.13 -0.13)">
     <use xlink:href="#TimesNewRomanPSMT-102"/>
     <use x="33.300781" xlink:href="#TimesNewRomanPSMT-112"/>
     <use x="83.300781" xlink:href="#TimesNewRomanPSMT-114"/>
     <use x="116.601562" xlink:href="#TimesNewRomanPSMT-61"/>
     <use x="172.998047" xlink:href="#TimesNewRomanPSMT-48"/>
     <use x="222.998047" xlink:href="#TimesNewRomanPSMT-46"/>
     <use x="247.998047" xlink:href="#TimesNewRomanPSMT-52"/>
     <use x="297.998047" xlink:href="#TimesNewRomanPSMT-50"/>
     <use x="347.998047" xlink:href="#TimesNewRomanPSMT-48"/>
    </g>
    <!-- fnr=0.000 -->
    <g transform="translate(130.371016 142.690909)scale(0.13 -0.13)">
     <use xlink:href="#TimesNewRomanPSMT-102"/>
     <use x="33.300781" xlink:href="#TimesNewRomanPSMT-110"/>
     <use x="83.300781" xlink:href="#TimesNewRomanPSMT-114"/>
     <use x="116.601562" xlink:href="#TimesNewRomanPSMT-61"/>
     <use x="172.998047" xlink:href="#TimesNewRomanPSMT-48"/>
     <use x="222.998047" xlink:href="#TimesNewRomanPSMT-46"/>
     <use x="247.998047" xlink:href="#TimesNewRomanPSMT-48"/>
     <use x="297.998047" xlink:href="#TimesNewRomanPSMT-48"/>
     <use x="347.998047" xlink:href="#TimesNewRomanPSMT-48"/>
    </g>
   </g>
   <g id="legend_1">
    <g id="patch_9">
     <path d="M 306.506875 104.434375 
L 484.96 104.434375 
Q 488.96 104.434375 488.96 100.434375 
L 488.96 17.6 
Q 488.96 13.6 484.96 13.6 
L 306.506875 13.6 
Q 302.506875 13.6 302.506875 17.6 
L 302.506875 100.434375 
Q 302.506875 104.434375 306.506875 104.434375 
z
" style="fill:#ffffff;opacity:0.8;stroke:#cccccc;stroke-linejoin:miter;"/>
    </g>
    <g id="PathCollection_4">
     <g>
      <use style="fill:#1f77b4;fill-opacity:0.9;stroke:#000000;stroke-opacity:0.9;" x="330.506875" xlink:href="#m959e68a20f" y="30.35"/>
     </g>
    </g>
    <g id="text_12">
     <!-- DBSCAN-U -->
     <g transform="translate(366.506875 35.6)scale(0.2 -0.2)">
      <defs>
       <path d="M 47.703125 64.40625 
L 47.703125 66.21875 
L 71.140625 66.21875 
L 71.140625 64.40625 
L 68.65625 64.40625 
Q 64.75 64.40625 62.640625 61.140625 
Q 61.625 59.625 61.625 54.109375 
L 61.625 27.25 
Q 61.625 17.28125 59.640625 11.78125 
Q 57.671875 6.296875 51.875 2.359375 
Q 46.09375 -1.5625 36.140625 -1.5625 
Q 25.296875 -1.5625 19.671875 2.1875 
Q 14.0625 5.953125 11.71875 12.3125 
Q 10.15625 16.65625 10.15625 28.609375 
L 10.15625 54.5 
Q 10.15625 60.59375 8.46875 62.5 
Q 6.78125 64.40625 3.03125 64.40625 
L 0.53125 64.40625 
L 0.53125 66.21875 
L 29.15625 66.21875 
L 29.15625 64.40625 
L 26.609375 64.40625 
Q 22.515625 64.40625 20.75 61.8125 
Q 19.53125 60.0625 19.53125 54.5 
L 19.53125 25.640625 
Q 19.53125 21.78125 20.234375 16.796875 
Q 20.953125 11.8125 22.796875 9.03125 
Q 24.65625 6.25 28.140625 4.4375 
Q 31.640625 2.640625 36.71875 2.640625 
Q 43.21875 2.640625 48.34375 5.46875 
Q 53.46875 8.296875 55.34375 12.71875 
Q 57.234375 17.140625 57.234375 27.6875 
L 57.234375 54.5 
Q 57.234375 60.6875 55.859375 62.25 
Q 53.953125 64.40625 50.203125 64.40625 
z
" id="TimesNewRomanPSMT-85"/>
      </defs>
      <use xlink:href="#TimesNewRomanPSMT-68"/>
      <use x="72.216797" xlink:href="#TimesNewRomanPSMT-66"/>
      <use x="138.916016" xlink:href="#TimesNewRomanPSMT-83"/>
      <use x="194.53125" xlink:href="#TimesNewRomanPSMT-67"/>
      <use x="261.230469" xlink:href="#TimesNewRomanPSMT-65"/>
      <use x="333.447266" xlink:href="#TimesNewRomanPSMT-78"/>
      <use x="405.664062" xlink:href="#TimesNewRomanPSMT-45"/>
      <use x="438.964844" xlink:href="#TimesNewRomanPSMT-85"/>
     </g>
    </g>
    <g id="PathCollection_5">
     <g>
      <use style="fill:#ff7f0e;fill-opacity:0.9;stroke:#000000;stroke-opacity:0.9;" x="330.506875" xlink:href="#mb21c47cf47" y="58.628125"/>
     </g>
    </g>
    <g id="text_13">
     <!-- OCSVM -->
     <g transform="translate(366.506875 63.878125)scale(0.2 -0.2)">
      <use xlink:href="#TimesNewRomanPSMT-79"/>
      <use x="72.216797" xlink:href="#TimesNewRomanPSMT-67"/>
      <use x="138.916016" xlink:href="#TimesNewRomanPSMT-83"/>
      <use x="194.53125" xlink:href="#TimesNewRomanPSMT-86"/>
      <use x="266.748047" xlink:href="#TimesNewRomanPSMT-77"/>
     </g>
    </g>
    <g id="PathCollection_6">
     <g>
      <use style="fill:#2ca02c;fill-opacity:0.8;stroke:#ffffff;stroke-opacity:0.8;" x="330.506875" xlink:href="#me5f6f39963" y="86.90625"/>
     </g>
    </g>
    <g id="text_14">
     <!-- DBSCAN-AE -->
     <g transform="translate(366.506875 92.15625)scale(0.2 -0.2)">
      <use xlink:href="#TimesNewRomanPSMT-68"/>
      <use x="72.216797" xlink:href="#TimesNewRomanPSMT-66"/>
      <use x="138.916016" xlink:href="#TimesNewRomanPSMT-83"/>
      <use x="194.53125" xlink:href="#TimesNewRomanPSMT-67"/>
      <use x="261.230469" xlink:href="#TimesNewRomanPSMT-65"/>
      <use x="333.447266" xlink:href="#TimesNewRomanPSMT-78"/>
      <use x="405.664062" xlink:href="#TimesNewRomanPSMT-45"/>
      <use x="438.964844" xlink:href="#TimesNewRomanPSMT-65"/>
      <use x="511.181641" xlink:href="#TimesNewRomanPSMT-69"/>
     </g>
    </g>
   </g>
  </g>
 </g>
 <defs>
  <clipPath id="p91150ccfa6">
   <rect height="306" width="443.52" x="55.44" y="3.6"/>
  </clipPath>
 </defs>
</svg>
