<?xml version="1.0" encoding="utf-8" standalone="no"?>
<!DOCTYPE svg PUBLIC "-//W3C//DTD SVG 1.1//EN"
  "http://www.w3.org/Graphics/SVG/1.1/DTD/svg11.dtd">
<!-- Created with matplotlib (https://matplotlib.org/) -->
<svg height="288pt" version="1.1" viewBox="0 0 432 288" width="432pt" xmlns="http://www.w3.org/2000/svg" xmlns:xlink="http://www.w3.org/1999/xlink">
 <metadata>
  <rdf:RDF xmlns:cc="http://creativecommons.org/ns#" xmlns:dc="http://purl.org/dc/elements/1.1/" xmlns:rdf="http://www.w3.org/1999/02/22-rdf-syntax-ns#">
   <cc:Work>
    <dc:type rdf:resource="http://purl.org/dc/dcmitype/StillImage"/>
    <dc:date>2021-02-07T12:23:04.281975</dc:date>
    <dc:format>image/svg+xml</dc:format>
    <dc:creator>
     <cc:Agent>
      <dc:title>Matplotlib v3.3.2, https://matplotlib.org/</dc:title>
     </cc:Agent>
    </dc:creator>
   </cc:Work>
  </rdf:RDF>
 </metadata>
 <defs>
  <style type="text/css">*{stroke-linecap:butt;stroke-linejoin:round;}</style>
 </defs>
 <g id="figure_1">
  <g id="patch_1">
   <path d="M 0 288 
L 432 288 
L 432 0 
L 0 0 
z
" style="fill:none;"/>
  </g>
  <g id="axes_1">
   <g id="patch_2">
    <path d="M 126.994898 219.4 
L 409.600243 219.4 
L 409.600243 21.6 
L 126.994898 21.6 
z
" style="fill:#ffffff;"/>
   </g>
   <g id="matplotlib.axis_1">
    <g id="xtick_1">
     <g id="line2d_1">
      <path clip-path="url(#pfe8d2a32e8)" d="M 139.840596 219.4 
L 139.840596 21.6 
" style="fill:none;stroke:#b0b0b0;stroke-dasharray:0.8,1.32;stroke-dashoffset:0;stroke-width:0.8;"/>
     </g>
     <g id="line2d_2">
      <defs>
       <path d="M 0 0 
L 0 3.5 
" id="meed2cc170b" style="stroke:#000000;stroke-width:0.8;"/>
      </defs>
      <g>
       <use style="stroke:#000000;stroke-width:0.8;" x="139.840596" xlink:href="#meed2cc170b" y="219.4"/>
      </g>
     </g>
     <g id="text_1">
      <!-- 0 -->
      <g transform="translate(134.840596 240.2875)scale(0.2 -0.2)">
       <defs>
        <path d="M 3.609375 32.71875 
Q 3.609375 44.046875 7.03125 52.21875 
Q 10.453125 60.40625 16.109375 64.40625 
Q 20.515625 67.578125 25.203125 67.578125 
Q 32.8125 67.578125 38.875 59.8125 
Q 46.4375 50.203125 46.4375 33.734375 
Q 46.4375 22.21875 43.109375 14.15625 
Q 39.796875 6.109375 34.640625 2.46875 
Q 29.5 -1.171875 24.703125 -1.171875 
Q 15.234375 -1.171875 8.9375 10.015625 
Q 3.609375 19.4375 3.609375 32.71875 
z
M 13.1875 31.5 
Q 13.1875 17.828125 16.546875 9.1875 
Q 19.34375 1.90625 24.859375 1.90625 
Q 27.484375 1.90625 30.3125 4.265625 
Q 33.15625 6.640625 34.625 12.203125 
Q 36.859375 20.609375 36.859375 35.890625 
Q 36.859375 47.21875 34.515625 54.78125 
Q 32.765625 60.40625 29.984375 62.75 
Q 27.984375 64.359375 25.140625 64.359375 
Q 21.828125 64.359375 19.234375 61.375 
Q 15.71875 57.328125 14.453125 48.625 
Q 13.1875 39.9375 13.1875 31.5 
z
" id="TimesNewRomanPSMT-48"/>
       </defs>
       <use xlink:href="#TimesNewRomanPSMT-48"/>
      </g>
     </g>
    </g>
    <g id="xtick_2">
     <g id="line2d_3">
      <path clip-path="url(#pfe8d2a32e8)" d="M 225.764994 219.4 
L 225.764994 21.6 
" style="fill:none;stroke:#b0b0b0;stroke-dasharray:0.8,1.32;stroke-dashoffset:0;stroke-width:0.8;"/>
     </g>
     <g id="line2d_4">
      <g>
       <use style="stroke:#000000;stroke-width:0.8;" x="225.764994" xlink:href="#meed2cc170b" y="219.4"/>
      </g>
     </g>
     <g id="text_2">
      <!-- 100 -->
      <g transform="translate(210.764994 240.2875)scale(0.2 -0.2)">
       <defs>
        <path d="M 11.71875 59.71875 
L 27.828125 67.578125 
L 29.4375 67.578125 
L 29.4375 11.671875 
Q 29.4375 6.109375 29.90625 4.734375 
Q 30.375 3.375 31.828125 2.640625 
Q 33.296875 1.90625 37.796875 1.8125 
L 37.796875 0 
L 12.890625 0 
L 12.890625 1.8125 
Q 17.578125 1.90625 18.9375 2.609375 
Q 20.3125 3.328125 20.84375 4.515625 
Q 21.390625 5.71875 21.390625 11.671875 
L 21.390625 47.40625 
Q 21.390625 54.640625 20.90625 56.6875 
Q 20.5625 58.25 19.65625 58.984375 
Q 18.75 59.71875 17.484375 59.71875 
Q 15.671875 59.71875 12.453125 58.203125 
z
" id="TimesNewRomanPSMT-49"/>
       </defs>
       <use xlink:href="#TimesNewRomanPSMT-49"/>
       <use x="50" xlink:href="#TimesNewRomanPSMT-48"/>
       <use x="100" xlink:href="#TimesNewRomanPSMT-48"/>
      </g>
     </g>
    </g>
    <g id="xtick_3">
     <g id="line2d_5">
      <path clip-path="url(#pfe8d2a32e8)" d="M 311.689392 219.4 
L 311.689392 21.6 
" style="fill:none;stroke:#b0b0b0;stroke-dasharray:0.8,1.32;stroke-dashoffset:0;stroke-width:0.8;"/>
     </g>
     <g id="line2d_6">
      <g>
       <use style="stroke:#000000;stroke-width:0.8;" x="311.689392" xlink:href="#meed2cc170b" y="219.4"/>
      </g>
     </g>
     <g id="text_3">
      <!-- 200 -->
      <g transform="translate(296.689392 240.2875)scale(0.2 -0.2)">
       <defs>
        <path d="M 45.84375 12.75 
L 41.21875 0 
L 2.15625 0 
L 2.15625 1.8125 
Q 19.390625 17.53125 26.421875 27.484375 
Q 33.453125 37.453125 33.453125 45.703125 
Q 33.453125 52 29.59375 56.046875 
Q 25.734375 60.109375 20.359375 60.109375 
Q 15.484375 60.109375 11.59375 57.25 
Q 7.71875 54.390625 5.859375 48.875 
L 4.046875 48.875 
Q 5.28125 57.90625 10.328125 62.734375 
Q 15.375 67.578125 22.953125 67.578125 
Q 31 67.578125 36.390625 62.40625 
Q 41.796875 57.234375 41.796875 50.203125 
Q 41.796875 45.171875 39.453125 40.140625 
Q 35.84375 32.234375 27.734375 23.390625 
Q 15.578125 10.109375 12.546875 7.375 
L 29.828125 7.375 
Q 35.109375 7.375 37.234375 7.765625 
Q 39.359375 8.15625 41.0625 9.34375 
Q 42.78125 10.546875 44.046875 12.75 
z
" id="TimesNewRomanPSMT-50"/>
       </defs>
       <use xlink:href="#TimesNewRomanPSMT-50"/>
       <use x="50" xlink:href="#TimesNewRomanPSMT-48"/>
       <use x="100" xlink:href="#TimesNewRomanPSMT-48"/>
      </g>
     </g>
    </g>
    <g id="xtick_4">
     <g id="line2d_7">
      <path clip-path="url(#pfe8d2a32e8)" d="M 397.61379 219.4 
L 397.61379 21.6 
" style="fill:none;stroke:#b0b0b0;stroke-dasharray:0.8,1.32;stroke-dashoffset:0;stroke-width:0.8;"/>
     </g>
     <g id="line2d_8">
      <g>
       <use style="stroke:#000000;stroke-width:0.8;" x="397.61379" xlink:href="#meed2cc170b" y="219.4"/>
      </g>
     </g>
     <g id="text_4">
      <!-- 300 -->
      <g transform="translate(382.61379 240.2875)scale(0.2 -0.2)">
       <defs>
        <path d="M 5.078125 53.609375 
Q 7.90625 60.296875 12.21875 63.9375 
Q 16.546875 67.578125 23 67.578125 
Q 30.953125 67.578125 35.203125 62.40625 
Q 38.421875 58.546875 38.421875 54.15625 
Q 38.421875 46.921875 29.34375 39.203125 
Q 35.453125 36.8125 38.578125 32.375 
Q 41.703125 27.9375 41.703125 21.921875 
Q 41.703125 13.328125 36.234375 7.03125 
Q 29.109375 -1.171875 15.578125 -1.171875 
Q 8.890625 -1.171875 6.46875 0.484375 
Q 4.046875 2.15625 4.046875 4.046875 
Q 4.046875 5.46875 5.1875 6.546875 
Q 6.34375 7.625 7.953125 7.625 
Q 9.1875 7.625 10.453125 7.234375 
Q 11.28125 6.984375 14.203125 5.4375 
Q 17.140625 3.90625 18.265625 3.609375 
Q 20.0625 3.078125 22.125 3.078125 
Q 27.09375 3.078125 30.78125 6.9375 
Q 34.46875 10.796875 34.46875 16.0625 
Q 34.46875 19.921875 32.765625 23.578125 
Q 31.5 26.3125 29.984375 27.734375 
Q 27.875 29.6875 24.21875 31.265625 
Q 20.5625 32.859375 16.75 32.859375 
L 15.1875 32.859375 
L 15.1875 34.328125 
Q 19.046875 34.8125 22.921875 37.109375 
Q 26.8125 39.40625 28.5625 42.625 
Q 30.328125 45.84375 30.328125 49.703125 
Q 30.328125 54.734375 27.171875 57.828125 
Q 24.03125 60.9375 19.34375 60.9375 
Q 11.765625 60.9375 6.6875 52.828125 
z
" id="TimesNewRomanPSMT-51"/>
       </defs>
       <use xlink:href="#TimesNewRomanPSMT-51"/>
       <use x="50" xlink:href="#TimesNewRomanPSMT-48"/>
       <use x="100" xlink:href="#TimesNewRomanPSMT-48"/>
      </g>
     </g>
    </g>
    <g id="text_5">
     <!-- Epoch -->
     <g transform="translate(242.750696 262.453125)scale(0.2 -0.2)">
      <defs>
       <path d="M 20.90625 62.59375 
L 20.90625 36.421875 
L 35.453125 36.421875 
Q 41.109375 36.421875 43.015625 38.140625 
Q 45.5625 40.375 45.84375 46.046875 
L 47.65625 46.046875 
L 47.65625 23 
L 45.84375 23 
Q 45.171875 27.828125 44.484375 29.203125 
Q 43.609375 30.90625 41.59375 31.875 
Q 39.59375 32.859375 35.453125 32.859375 
L 20.90625 32.859375 
L 20.90625 11.03125 
Q 20.90625 6.640625 21.296875 5.6875 
Q 21.6875 4.734375 22.65625 4.171875 
Q 23.640625 3.609375 26.375 3.609375 
L 37.59375 3.609375 
Q 43.21875 3.609375 45.75 4.390625 
Q 48.296875 5.171875 50.640625 7.46875 
Q 53.65625 10.5 56.84375 16.609375 
L 58.796875 16.609375 
L 53.078125 0 
L 2.046875 0 
L 2.046875 1.8125 
L 4.390625 1.8125 
Q 6.734375 1.8125 8.84375 2.9375 
Q 10.40625 3.71875 10.96875 5.28125 
Q 11.53125 6.84375 11.53125 11.671875 
L 11.53125 54.6875 
Q 11.53125 60.984375 10.25 62.453125 
Q 8.5 64.40625 4.390625 64.40625 
L 2.046875 64.40625 
L 2.046875 66.21875 
L 53.078125 66.21875 
L 53.8125 51.703125 
L 51.90625 51.703125 
Q 50.875 56.9375 49.625 58.890625 
Q 48.390625 60.84375 45.953125 61.859375 
Q 44 62.59375 39.0625 62.59375 
z
" id="TimesNewRomanPSMT-69"/>
       <path d="M -0.09375 40.28125 
L 13.671875 45.84375 
L 15.53125 45.84375 
L 15.53125 35.40625 
Q 19 41.3125 22.484375 43.671875 
Q 25.984375 46.046875 29.828125 46.046875 
Q 36.578125 46.046875 41.0625 40.765625 
Q 46.578125 34.328125 46.578125 23.96875 
Q 46.578125 12.40625 39.9375 4.828125 
Q 34.46875 -1.375 26.171875 -1.375 
Q 22.5625 -1.375 19.921875 -0.34375 
Q 17.96875 0.390625 15.53125 2.59375 
L 15.53125 -11.03125 
Q 15.53125 -15.625 16.09375 -16.859375 
Q 16.65625 -18.109375 18.046875 -18.84375 
Q 19.4375 -19.578125 23.09375 -19.578125 
L 23.09375 -21.390625 
L -0.34375 -21.390625 
L -0.34375 -19.578125 
L 0.875 -19.578125 
Q 3.5625 -19.625 5.46875 -18.5625 
Q 6.390625 -18.015625 6.90625 -16.8125 
Q 7.421875 -15.625 7.421875 -10.75 
L 7.421875 31.546875 
Q 7.421875 35.890625 7.03125 37.0625 
Q 6.640625 38.234375 5.78125 38.8125 
Q 4.9375 39.40625 3.46875 39.40625 
Q 2.296875 39.40625 0.484375 38.71875 
z
M 15.53125 32.515625 
L 15.53125 15.828125 
Q 15.53125 10.40625 15.96875 8.6875 
Q 16.65625 5.859375 19.3125 3.703125 
Q 21.96875 1.5625 26.03125 1.5625 
Q 30.90625 1.5625 33.9375 5.375 
Q 37.890625 10.359375 37.890625 19.390625 
Q 37.890625 29.640625 33.40625 35.15625 
Q 30.28125 38.96875 25.984375 38.96875 
Q 23.640625 38.96875 21.34375 37.796875 
Q 19.578125 36.921875 15.53125 32.515625 
z
" id="TimesNewRomanPSMT-112"/>
       <path d="M 25 46.046875 
Q 35.15625 46.046875 41.3125 38.328125 
Q 46.53125 31.734375 46.53125 23.1875 
Q 46.53125 17.1875 43.640625 11.03125 
Q 40.765625 4.890625 35.71875 1.75 
Q 30.671875 -1.375 24.46875 -1.375 
Q 14.359375 -1.375 8.40625 6.6875 
Q 3.375 13.484375 3.375 21.921875 
Q 3.375 28.078125 6.421875 34.15625 
Q 9.46875 40.234375 14.453125 43.140625 
Q 19.4375 46.046875 25 46.046875 
z
M 23.484375 42.875 
Q 20.90625 42.875 18.28125 41.328125 
Q 15.671875 39.796875 14.0625 35.9375 
Q 12.453125 32.078125 12.453125 26.03125 
Q 12.453125 16.265625 16.328125 9.171875 
Q 20.21875 2.09375 26.5625 2.09375 
Q 31.296875 2.09375 34.375 6 
Q 37.453125 9.90625 37.453125 19.4375 
Q 37.453125 31.34375 32.328125 38.1875 
Q 28.859375 42.875 23.484375 42.875 
z
" id="TimesNewRomanPSMT-111"/>
       <path d="M 41.109375 17 
Q 39.3125 8.15625 34.03125 3.390625 
Q 28.765625 -1.375 22.359375 -1.375 
Q 14.75 -1.375 9.078125 5.015625 
Q 3.421875 11.421875 3.421875 22.3125 
Q 3.421875 32.859375 9.6875 39.453125 
Q 15.96875 46.046875 24.75 46.046875 
Q 31.34375 46.046875 35.59375 42.546875 
Q 39.84375 39.0625 39.84375 35.296875 
Q 39.84375 33.453125 38.640625 32.296875 
Q 37.453125 31.15625 35.296875 31.15625 
Q 32.421875 31.15625 30.953125 33.015625 
Q 30.125 34.03125 29.859375 36.90625 
Q 29.59375 39.796875 27.875 41.3125 
Q 26.171875 42.78125 23.140625 42.78125 
Q 18.265625 42.78125 15.28125 39.15625 
Q 11.328125 34.375 11.328125 26.515625 
Q 11.328125 18.5 15.25 12.375 
Q 19.1875 6.25 25.875 6.25 
Q 30.671875 6.25 34.46875 9.515625 
Q 37.15625 11.765625 39.703125 17.671875 
z
" id="TimesNewRomanPSMT-99"/>
       <path d="M 16.265625 69.4375 
L 16.265625 36.71875 
Q 21.6875 42.671875 24.859375 44.359375 
Q 28.03125 46.046875 31.203125 46.046875 
Q 35.015625 46.046875 37.75 43.9375 
Q 40.484375 41.84375 41.796875 37.359375 
Q 42.71875 34.234375 42.71875 25.921875 
L 42.71875 10.109375 
Q 42.71875 5.859375 43.40625 4.296875 
Q 43.890625 3.125 45.0625 2.4375 
Q 46.234375 1.765625 49.359375 1.765625 
L 49.359375 0 
L 27.390625 0 
L 27.390625 1.765625 
L 28.421875 1.765625 
Q 31.546875 1.765625 32.765625 2.703125 
Q 33.984375 3.65625 34.46875 5.515625 
Q 34.625 6.296875 34.625 10.109375 
L 34.625 25.921875 
Q 34.625 33.25 33.859375 35.546875 
Q 33.109375 37.84375 31.4375 38.984375 
Q 29.78125 40.140625 27.4375 40.140625 
Q 25.046875 40.140625 22.453125 38.859375 
Q 19.875 37.59375 16.265625 33.734375 
L 16.265625 10.109375 
Q 16.265625 5.515625 16.765625 4.390625 
Q 17.28125 3.265625 18.671875 2.515625 
Q 20.0625 1.765625 23.484375 1.765625 
L 23.484375 0 
L 1.3125 0 
L 1.3125 1.765625 
Q 4.296875 1.765625 6 2.6875 
Q 6.984375 3.171875 7.5625 4.53125 
Q 8.15625 5.90625 8.15625 10.109375 
L 8.15625 50.59375 
Q 8.15625 58.25 7.78125 60 
Q 7.421875 61.765625 6.65625 62.390625 
Q 5.90625 63.03125 4.640625 63.03125 
Q 3.609375 63.03125 1.3125 62.25 
L 0.640625 63.96875 
L 14.015625 69.4375 
z
" id="TimesNewRomanPSMT-104"/>
      </defs>
      <use xlink:href="#TimesNewRomanPSMT-69"/>
      <use x="61.083984" xlink:href="#TimesNewRomanPSMT-112"/>
      <use x="111.083984" xlink:href="#TimesNewRomanPSMT-111"/>
      <use x="161.083984" xlink:href="#TimesNewRomanPSMT-99"/>
      <use x="205.46875" xlink:href="#TimesNewRomanPSMT-104"/>
     </g>
    </g>
   </g>
   <g id="matplotlib.axis_2">
    <g id="ytick_1">
     <g id="line2d_9">
      <path clip-path="url(#pfe8d2a32e8)" d="M 126.994898 215.549521 
L 409.600243 215.549521 
" style="fill:none;stroke:#b0b0b0;stroke-dasharray:0.8,1.32;stroke-dashoffset:0;stroke-width:0.8;"/>
     </g>
     <g id="line2d_10">
      <defs>
       <path d="M 0 0 
L -3.5 0 
" id="m5e24fb2e70" style="stroke:#000000;stroke-width:0.8;"/>
      </defs>
      <g>
       <use style="stroke:#000000;stroke-width:0.8;" x="126.994898" xlink:href="#m5e24fb2e70" y="215.549521"/>
      </g>
     </g>
     <g id="text_6">
      <!-- $\mathdefault{10^{-1}}$ -->
      <g transform="translate(83.794898 224.410459)scale(0.2 -0.2)">
       <defs>
        <path d="M 54.4375 31.25 
L 1.8125 31.25 
L 1.8125 35.25 
L 54.4375 35.25 
z
" id="TimesNewRomanPSMT-8722"/>
       </defs>
       <use transform="translate(0 0.582813)" xlink:href="#TimesNewRomanPSMT-49"/>
       <use transform="translate(50 0.582813)" xlink:href="#TimesNewRomanPSMT-48"/>
       <use transform="translate(101.502813 60.695312)scale(0.7)" xlink:href="#TimesNewRomanPSMT-8722"/>
       <use transform="translate(140.980352 60.695312)scale(0.7)" xlink:href="#TimesNewRomanPSMT-49"/>
      </g>
     </g>
    </g>
    <g id="ytick_2">
     <g id="line2d_11">
      <path clip-path="url(#pfe8d2a32e8)" d="M 126.994898 178.48637 
L 409.600243 178.48637 
" style="fill:none;stroke:#b0b0b0;stroke-dasharray:0.8,1.32;stroke-dashoffset:0;stroke-width:0.8;"/>
     </g>
     <g id="line2d_12">
      <defs>
       <path d="M 0 0 
L -2 0 
" id="mfd2b69cdf5" style="stroke:#000000;stroke-width:0.6;"/>
      </defs>
      <g>
       <use style="stroke:#000000;stroke-width:0.6;" x="126.994898" xlink:href="#mfd2b69cdf5" y="178.48637"/>
      </g>
     </g>
     <g id="text_7">
      <!-- $\mathdefault{1.2\times10^{-1}}$ -->
      <g transform="translate(42.994898 187.347308)scale(0.2 -0.2)">
       <defs>
        <path d="M 12.5 9.46875 
Q 14.796875 9.46875 16.359375 7.875 
Q 17.921875 6.296875 17.921875 4.046875 
Q 17.921875 1.8125 16.328125 0.21875 
Q 14.75 -1.375 12.5 -1.375 
Q 10.25 -1.375 8.65625 0.21875 
Q 7.078125 1.8125 7.078125 4.046875 
Q 7.078125 6.34375 8.65625 7.90625 
Q 10.25 9.46875 12.5 9.46875 
z
" id="TimesNewRomanPSMT-46"/>
        <path d="M 8.0625 16.015625 
L 25.296875 33.25 
L 8.109375 50.4375 
L 10.9375 53.265625 
L 28.125 36.078125 
L 45.3125 53.265625 
L 48.046875 50.484375 
L 30.859375 33.296875 
L 48.140625 16.015625 
L 45.359375 13.1875 
L 28.078125 30.46875 
L 10.84375 13.234375 
z
" id="TimesNewRomanPSMT-215"/>
       </defs>
       <use transform="translate(0 0.582813)" xlink:href="#TimesNewRomanPSMT-49"/>
       <use transform="translate(50 0.582813)" xlink:href="#TimesNewRomanPSMT-46"/>
       <use transform="translate(75 0.582813)" xlink:href="#TimesNewRomanPSMT-50"/>
       <use transform="translate(140.556641 0.582813)" xlink:href="#TimesNewRomanPSMT-215"/>
       <use transform="translate(212.509766 0.582813)" xlink:href="#TimesNewRomanPSMT-49"/>
       <use transform="translate(262.509766 0.582813)" xlink:href="#TimesNewRomanPSMT-48"/>
       <use transform="translate(314.012578 60.695312)scale(0.7)" xlink:href="#TimesNewRomanPSMT-8722"/>
       <use transform="translate(353.490117 60.695312)scale(0.7)" xlink:href="#TimesNewRomanPSMT-49"/>
      </g>
     </g>
    </g>
    <g id="ytick_3">
     <g id="line2d_13">
      <path clip-path="url(#pfe8d2a32e8)" d="M 126.994898 147.149922 
L 409.600243 147.149922 
" style="fill:none;stroke:#b0b0b0;stroke-dasharray:0.8,1.32;stroke-dashoffset:0;stroke-width:0.8;"/>
     </g>
     <g id="line2d_14">
      <g>
       <use style="stroke:#000000;stroke-width:0.6;" x="126.994898" xlink:href="#mfd2b69cdf5" y="147.149922"/>
      </g>
     </g>
     <g id="text_8">
      <!-- $\mathdefault{1.4\times10^{-1}}$ -->
      <g transform="translate(42.994898 156.01086)scale(0.2 -0.2)">
       <defs>
        <path d="M 46.53125 24.421875 
L 46.53125 17.484375 
L 37.640625 17.484375 
L 37.640625 0 
L 29.59375 0 
L 29.59375 17.484375 
L 1.5625 17.484375 
L 1.5625 23.734375 
L 32.28125 67.578125 
L 37.640625 67.578125 
L 37.640625 24.421875 
z
M 29.59375 24.421875 
L 29.59375 57.28125 
L 6.34375 24.421875 
z
" id="TimesNewRomanPSMT-52"/>
       </defs>
       <use transform="translate(0 0.582813)" xlink:href="#TimesNewRomanPSMT-49"/>
       <use transform="translate(50 0.582813)" xlink:href="#TimesNewRomanPSMT-46"/>
       <use transform="translate(75 0.582813)" xlink:href="#TimesNewRomanPSMT-52"/>
       <use transform="translate(140.556641 0.582813)" xlink:href="#TimesNewRomanPSMT-215"/>
       <use transform="translate(212.509766 0.582813)" xlink:href="#TimesNewRomanPSMT-49"/>
       <use transform="translate(262.509766 0.582813)" xlink:href="#TimesNewRomanPSMT-48"/>
       <use transform="translate(314.012578 60.695312)scale(0.7)" xlink:href="#TimesNewRomanPSMT-8722"/>
       <use transform="translate(353.490117 60.695312)scale(0.7)" xlink:href="#TimesNewRomanPSMT-49"/>
      </g>
     </g>
    </g>
    <g id="ytick_4">
     <g id="line2d_15">
      <path clip-path="url(#pfe8d2a32e8)" d="M 126.994898 120.005057 
L 409.600243 120.005057 
" style="fill:none;stroke:#b0b0b0;stroke-dasharray:0.8,1.32;stroke-dashoffset:0;stroke-width:0.8;"/>
     </g>
     <g id="line2d_16">
      <g>
       <use style="stroke:#000000;stroke-width:0.6;" x="126.994898" xlink:href="#mfd2b69cdf5" y="120.005057"/>
      </g>
     </g>
     <g id="text_9">
      <!-- $\mathdefault{1.6\times10^{-1}}$ -->
      <g transform="translate(42.994898 128.865994)scale(0.2 -0.2)">
       <defs>
        <path d="M 44.828125 67.578125 
L 44.828125 65.765625 
Q 38.375 65.140625 34.296875 63.203125 
Q 30.21875 61.28125 26.234375 57.328125 
Q 22.265625 53.375 19.65625 48.515625 
Q 17.046875 43.65625 15.28125 36.96875 
Q 22.3125 41.796875 29.390625 41.796875 
Q 36.1875 41.796875 41.15625 36.328125 
Q 46.140625 30.859375 46.140625 22.265625 
Q 46.140625 13.96875 41.109375 7.125 
Q 35.0625 -1.171875 25.09375 -1.171875 
Q 18.3125 -1.171875 13.578125 3.328125 
Q 4.296875 12.0625 4.296875 25.984375 
Q 4.296875 34.859375 7.859375 42.859375 
Q 11.421875 50.875 18.03125 57.078125 
Q 24.65625 63.28125 30.703125 65.421875 
Q 36.765625 67.578125 42 67.578125 
z
M 14.453125 33.40625 
Q 13.578125 26.8125 13.578125 22.75 
Q 13.578125 18.0625 15.3125 12.5625 
Q 17.046875 7.078125 20.453125 3.859375 
Q 22.953125 1.5625 26.515625 1.5625 
Q 30.765625 1.5625 34.109375 5.5625 
Q 37.453125 9.578125 37.453125 17 
Q 37.453125 25.34375 34.125 31.4375 
Q 30.8125 37.546875 24.703125 37.546875 
Q 22.859375 37.546875 20.734375 36.765625 
Q 18.609375 35.984375 14.453125 33.40625 
z
" id="TimesNewRomanPSMT-54"/>
       </defs>
       <use transform="translate(0 0.582813)" xlink:href="#TimesNewRomanPSMT-49"/>
       <use transform="translate(50 0.582813)" xlink:href="#TimesNewRomanPSMT-46"/>
       <use transform="translate(75 0.582813)" xlink:href="#TimesNewRomanPSMT-54"/>
       <use transform="translate(140.556641 0.582813)" xlink:href="#TimesNewRomanPSMT-215"/>
       <use transform="translate(212.509766 0.582813)" xlink:href="#TimesNewRomanPSMT-49"/>
       <use transform="translate(262.509766 0.582813)" xlink:href="#TimesNewRomanPSMT-48"/>
       <use transform="translate(314.012578 60.695312)scale(0.7)" xlink:href="#TimesNewRomanPSMT-8722"/>
       <use transform="translate(353.490117 60.695312)scale(0.7)" xlink:href="#TimesNewRomanPSMT-49"/>
      </g>
     </g>
    </g>
    <g id="ytick_5">
     <g id="line2d_17">
      <path clip-path="url(#pfe8d2a32e8)" d="M 126.994898 96.061588 
L 409.600243 96.061588 
" style="fill:none;stroke:#b0b0b0;stroke-dasharray:0.8,1.32;stroke-dashoffset:0;stroke-width:0.8;"/>
     </g>
     <g id="line2d_18">
      <g>
       <use style="stroke:#000000;stroke-width:0.6;" x="126.994898" xlink:href="#mfd2b69cdf5" y="96.061588"/>
      </g>
     </g>
     <g id="text_10">
      <!-- $\mathdefault{1.8\times10^{-1}}$ -->
      <g transform="translate(42.994898 104.922526)scale(0.2 -0.2)">
       <defs>
        <path d="M 19.1875 33.34375 
Q 11.328125 39.796875 9.046875 43.703125 
Q 6.78125 47.609375 6.78125 51.8125 
Q 6.78125 58.25 11.765625 62.90625 
Q 16.75 67.578125 25 67.578125 
Q 33.015625 67.578125 37.890625 63.234375 
Q 42.78125 58.890625 42.78125 53.328125 
Q 42.78125 49.609375 40.140625 45.75 
Q 37.5 41.890625 29.15625 36.671875 
Q 37.75 30.03125 40.53125 26.21875 
Q 44.234375 21.234375 44.234375 15.71875 
Q 44.234375 8.734375 38.90625 3.78125 
Q 33.59375 -1.171875 24.953125 -1.171875 
Q 15.53125 -1.171875 10.25 4.734375 
Q 6.0625 9.46875 6.0625 15.09375 
Q 6.0625 19.484375 9.015625 23.796875 
Q 11.96875 28.125 19.1875 33.34375 
z
M 26.859375 38.578125 
Q 32.71875 43.84375 34.28125 46.890625 
Q 35.84375 49.953125 35.84375 53.8125 
Q 35.84375 58.9375 32.953125 61.84375 
Q 30.078125 64.75 25.09375 64.75 
Q 20.125 64.75 17 61.859375 
Q 13.875 58.984375 13.875 55.125 
Q 13.875 52.59375 15.15625 50.046875 
Q 16.453125 47.515625 18.84375 45.21875 
z
M 21.484375 31.5 
Q 17.4375 28.078125 15.484375 24.046875 
Q 13.53125 20.015625 13.53125 15.328125 
Q 13.53125 9.03125 16.96875 5.25 
Q 20.40625 1.46875 25.734375 1.46875 
Q 31 1.46875 34.171875 4.4375 
Q 37.359375 7.421875 37.359375 11.671875 
Q 37.359375 15.1875 35.5 17.96875 
Q 32.03125 23.140625 21.484375 31.5 
z
" id="TimesNewRomanPSMT-56"/>
       </defs>
       <use transform="translate(0 0.582813)" xlink:href="#TimesNewRomanPSMT-49"/>
       <use transform="translate(50 0.582813)" xlink:href="#TimesNewRomanPSMT-46"/>
       <use transform="translate(75 0.582813)" xlink:href="#TimesNewRomanPSMT-56"/>
       <use transform="translate(140.556641 0.582813)" xlink:href="#TimesNewRomanPSMT-215"/>
       <use transform="translate(212.509766 0.582813)" xlink:href="#TimesNewRomanPSMT-49"/>
       <use transform="translate(262.509766 0.582813)" xlink:href="#TimesNewRomanPSMT-48"/>
       <use transform="translate(314.012578 60.695312)scale(0.7)" xlink:href="#TimesNewRomanPSMT-8722"/>
       <use transform="translate(353.490117 60.695312)scale(0.7)" xlink:href="#TimesNewRomanPSMT-49"/>
      </g>
     </g>
    </g>
    <g id="ytick_6">
     <g id="line2d_19">
      <path clip-path="url(#pfe8d2a32e8)" d="M 126.994898 74.643426 
L 409.600243 74.643426 
" style="fill:none;stroke:#b0b0b0;stroke-dasharray:0.8,1.32;stroke-dashoffset:0;stroke-width:0.8;"/>
     </g>
     <g id="line2d_20">
      <g>
       <use style="stroke:#000000;stroke-width:0.6;" x="126.994898" xlink:href="#mfd2b69cdf5" y="74.643426"/>
      </g>
     </g>
     <g id="text_11">
      <!-- $\mathdefault{2\times10^{-1}}$ -->
      <g transform="translate(57.994898 83.504363)scale(0.2 -0.2)">
       <use transform="translate(0 0.582813)" xlink:href="#TimesNewRomanPSMT-50"/>
       <use transform="translate(65.556641 0.582813)" xlink:href="#TimesNewRomanPSMT-215"/>
       <use transform="translate(137.509766 0.582813)" xlink:href="#TimesNewRomanPSMT-49"/>
       <use transform="translate(187.509766 0.582813)" xlink:href="#TimesNewRomanPSMT-48"/>
       <use transform="translate(239.012578 60.695312)scale(0.7)" xlink:href="#TimesNewRomanPSMT-8722"/>
       <use transform="translate(278.490117 60.695312)scale(0.7)" xlink:href="#TimesNewRomanPSMT-49"/>
      </g>
     </g>
    </g>
    <g id="ytick_7">
     <g id="line2d_21">
      <path clip-path="url(#pfe8d2a32e8)" d="M 126.994898 55.268341 
L 409.600243 55.268341 
" style="fill:none;stroke:#b0b0b0;stroke-dasharray:0.8,1.32;stroke-dashoffset:0;stroke-width:0.8;"/>
     </g>
     <g id="line2d_22">
      <g>
       <use style="stroke:#000000;stroke-width:0.6;" x="126.994898" xlink:href="#mfd2b69cdf5" y="55.268341"/>
      </g>
     </g>
     <g id="text_12">
      <!-- $\mathdefault{2.2\times10^{-1}}$ -->
      <g transform="translate(42.994898 64.129278)scale(0.2 -0.2)">
       <use transform="translate(0 0.582813)" xlink:href="#TimesNewRomanPSMT-50"/>
       <use transform="translate(50 0.582813)" xlink:href="#TimesNewRomanPSMT-46"/>
       <use transform="translate(75 0.582813)" xlink:href="#TimesNewRomanPSMT-50"/>
       <use transform="translate(140.556641 0.582813)" xlink:href="#TimesNewRomanPSMT-215"/>
       <use transform="translate(212.509766 0.582813)" xlink:href="#TimesNewRomanPSMT-49"/>
       <use transform="translate(262.509766 0.582813)" xlink:href="#TimesNewRomanPSMT-48"/>
       <use transform="translate(314.012578 60.695312)scale(0.7)" xlink:href="#TimesNewRomanPSMT-8722"/>
       <use transform="translate(353.490117 60.695312)scale(0.7)" xlink:href="#TimesNewRomanPSMT-49"/>
      </g>
     </g>
    </g>
    <g id="ytick_8">
     <g id="line2d_23">
      <path clip-path="url(#pfe8d2a32e8)" d="M 126.994898 37.580274 
L 409.600243 37.580274 
" style="fill:none;stroke:#b0b0b0;stroke-dasharray:0.8,1.32;stroke-dashoffset:0;stroke-width:0.8;"/>
     </g>
     <g id="line2d_24">
      <g>
       <use style="stroke:#000000;stroke-width:0.6;" x="126.994898" xlink:href="#mfd2b69cdf5" y="37.580274"/>
      </g>
     </g>
     <g id="text_13">
      <!-- $\mathdefault{2.4\times10^{-1}}$ -->
      <g transform="translate(42.994898 46.441212)scale(0.2 -0.2)">
       <use transform="translate(0 0.582813)" xlink:href="#TimesNewRomanPSMT-50"/>
       <use transform="translate(50 0.582813)" xlink:href="#TimesNewRomanPSMT-46"/>
       <use transform="translate(75 0.582813)" xlink:href="#TimesNewRomanPSMT-52"/>
       <use transform="translate(140.556641 0.582813)" xlink:href="#TimesNewRomanPSMT-215"/>
       <use transform="translate(212.509766 0.582813)" xlink:href="#TimesNewRomanPSMT-49"/>
       <use transform="translate(262.509766 0.582813)" xlink:href="#TimesNewRomanPSMT-48"/>
       <use transform="translate(314.012578 60.695312)scale(0.7)" xlink:href="#TimesNewRomanPSMT-8722"/>
       <use transform="translate(353.490117 60.695312)scale(0.7)" xlink:href="#TimesNewRomanPSMT-49"/>
      </g>
     </g>
    </g>
    <g id="text_14">
     <!-- MSE -->
     <g transform="translate(34.716773 141.060937)rotate(-90)scale(0.2 -0.2)">
      <defs>
       <path d="M 40.921875 0 
L 15.328125 55.71875 
L 15.328125 11.46875 
Q 15.328125 5.375 16.65625 3.859375 
Q 18.453125 1.8125 22.359375 1.8125 
L 24.703125 1.8125 
L 24.703125 0 
L 1.65625 0 
L 1.65625 1.8125 
L 4 1.8125 
Q 8.203125 1.8125 9.96875 4.34375 
Q 11.03125 5.90625 11.03125 11.46875 
L 11.03125 54.734375 
Q 11.03125 59.125 10.0625 61.078125 
Q 9.375 62.5 7.546875 63.453125 
Q 5.71875 64.40625 1.65625 64.40625 
L 1.65625 66.21875 
L 20.40625 66.21875 
L 44.4375 14.40625 
L 68.0625 66.21875 
L 86.8125 66.21875 
L 86.8125 64.40625 
L 84.515625 64.40625 
Q 80.28125 64.40625 78.515625 61.859375 
Q 77.4375 60.296875 77.4375 54.734375 
L 77.4375 11.46875 
Q 77.4375 5.375 78.8125 3.859375 
Q 80.609375 1.8125 84.515625 1.8125 
L 86.8125 1.8125 
L 86.8125 0 
L 58.6875 0 
L 58.6875 1.8125 
L 61.03125 1.8125 
Q 65.28125 1.8125 67 4.34375 
Q 68.0625 5.90625 68.0625 11.46875 
L 68.0625 55.71875 
L 42.53125 0 
z
" id="TimesNewRomanPSMT-77"/>
       <path d="M 45.84375 67.71875 
L 45.84375 44.828125 
L 44.046875 44.828125 
Q 43.171875 51.421875 40.890625 55.328125 
Q 38.625 59.234375 34.421875 61.515625 
Q 30.21875 63.8125 25.734375 63.8125 
Q 20.65625 63.8125 17.328125 60.71875 
Q 14.015625 57.625 14.015625 53.65625 
Q 14.015625 50.640625 16.109375 48.140625 
Q 19.140625 44.484375 30.515625 38.375 
Q 39.796875 33.40625 43.1875 30.734375 
Q 46.578125 28.078125 48.40625 24.453125 
Q 50.25 20.84375 50.25 16.890625 
Q 50.25 9.375 44.40625 3.921875 
Q 38.578125 -1.515625 29.390625 -1.515625 
Q 26.515625 -1.515625 23.96875 -1.078125 
Q 22.46875 -0.828125 17.703125 0.703125 
Q 12.9375 2.25 11.671875 2.25 
Q 10.453125 2.25 9.734375 1.515625 
Q 9.03125 0.78125 8.6875 -1.515625 
L 6.890625 -1.515625 
L 6.890625 21.1875 
L 8.6875 21.1875 
Q 9.96875 14.0625 12.109375 10.515625 
Q 14.265625 6.984375 18.671875 4.640625 
Q 23.09375 2.296875 28.375 2.296875 
Q 34.46875 2.296875 38 5.515625 
Q 41.546875 8.734375 41.546875 13.140625 
Q 41.546875 15.578125 40.203125 18.0625 
Q 38.875 20.5625 36.03125 22.703125 
Q 34.125 24.171875 25.625 28.921875 
Q 17.140625 33.6875 13.546875 36.515625 
Q 9.96875 39.359375 8.109375 42.765625 
Q 6.25 46.1875 6.25 50.296875 
Q 6.25 57.421875 11.71875 62.5625 
Q 17.1875 67.71875 25.640625 67.71875 
Q 30.90625 67.71875 36.8125 65.140625 
Q 39.546875 63.921875 40.671875 63.921875 
Q 41.9375 63.921875 42.75 64.671875 
Q 43.5625 65.4375 44.046875 67.71875 
z
" id="TimesNewRomanPSMT-83"/>
      </defs>
      <use xlink:href="#TimesNewRomanPSMT-77"/>
      <use x="88.916016" xlink:href="#TimesNewRomanPSMT-83"/>
      <use x="144.53125" xlink:href="#TimesNewRomanPSMT-69"/>
     </g>
    </g>
   </g>
   <g id="line2d_25">
    <path clip-path="url(#pfe8d2a32e8)" d="M 139.840596 30.590909 
L 140.69984 32.08418 
L 142.418328 33.771045 
L 145.855304 36.659994 
L 158.743963 47.0614 
L 190.535991 71.88984 
L 202.565406 80.878655 
L 220.60953 93.717789 
L 236.075922 104.022803 
L 242.949873 108.336328 
L 250.683069 113.019587 
L 255.838533 116.040872 
L 267.008705 122.20078 
L 276.460389 127.078908 
L 290.208292 133.545859 
L 296.223 136.164464 
L 303.096952 138.92676 
L 315.985612 143.745941 
L 324.578051 146.59118 
L 334.029735 149.376353 
L 344.340663 152.053652 
L 349.496127 153.218107 
L 358.947811 155.149386 
L 369.258738 156.971869 
L 374.414202 157.742359 
L 381.288154 158.675484 
L 390.739838 159.784809 
L 396.754546 160.300935 
L 396.754546 160.300935 
" style="fill:none;stroke:#1f77b4;stroke-linecap:square;stroke-width:1.5;"/>
    <defs>
     <path d="M 0 5 
C 1.326016 5 2.597899 4.473168 3.535534 3.535534 
C 4.473168 2.597899 5 1.326016 5 0 
C 5 -1.326016 4.473168 -2.597899 3.535534 -3.535534 
C 2.597899 -4.473168 1.326016 -5 0 -5 
C -1.326016 -5 -2.597899 -4.473168 -3.535534 -3.535534 
C -4.473168 -2.597899 -5 -1.326016 -5 0 
C -5 1.326016 -4.473168 2.597899 -3.535534 3.535534 
C -2.597899 4.473168 -1.326016 5 0 5 
z
" id="m424f390ec0" style="stroke:#ffffff;"/>
    </defs>
    <g clip-path="url(#pfe8d2a32e8)">
     <use style="fill:#1f77b4;stroke:#ffffff;" x="139.840596" xlink:href="#m424f390ec0" y="30.590909"/>
     <use style="fill:#1f77b4;stroke:#ffffff;" x="225.764994" xlink:href="#m424f390ec0" y="97.222031"/>
     <use style="fill:#1f77b4;stroke:#ffffff;" x="311.689392" xlink:href="#m424f390ec0" y="142.185757"/>
    </g>
   </g>
   <g id="line2d_26">
    <path clip-path="url(#pfe8d2a32e8)" d="M 139.840596 31.635859 
L 141.559084 33.644512 
L 144.136816 36.166217 
L 157.884719 48.994107 
L 168.195647 58.584347 
L 194.832211 83.243009 
L 208.580114 95.809154 
L 230.920458 115.511297 
L 247.246093 129.231631 
L 263.571729 142.17898 
L 271.304925 148.068949 
L 280.756609 154.978731 
L 285.052828 157.98346 
L 290.208292 161.536042 
L 297.082244 166.121704 
L 299.659976 167.783383 
L 312.548636 175.715226 
L 326.296539 183.487962 
L 333.170491 187.06356 
L 346.059151 193.219061 
L 363.244031 200.199258 
L 365.821762 201.139885 
L 376.991934 204.962492 
L 383.006642 206.848033 
L 390.739838 209.035122 
L 396.754546 210.409091 
L 396.754546 210.409091 
" style="fill:none;stroke:#ff7f0e;stroke-dasharray:5.55,2.4;stroke-dashoffset:0;stroke-width:1.5;"/>
   </g>
   <g id="patch_3">
    <path d="M 126.994898 219.4 
L 126.994898 21.6 
" style="fill:none;stroke:#000000;stroke-linecap:square;stroke-linejoin:miter;stroke-width:0.8;"/>
   </g>
   <g id="patch_4">
    <path d="M 409.600243 219.4 
L 409.600243 21.6 
" style="fill:none;stroke:#000000;stroke-linecap:square;stroke-linejoin:miter;stroke-width:0.8;"/>
   </g>
   <g id="patch_5">
    <path d="M 126.994898 219.4 
L 409.600243 219.4 
" style="fill:none;stroke:#000000;stroke-linecap:square;stroke-linejoin:miter;stroke-width:0.8;"/>
   </g>
   <g id="patch_6">
    <path d="M 126.994898 21.6 
L 409.600243 21.6 
" style="fill:none;stroke:#000000;stroke-linecap:square;stroke-linejoin:miter;stroke-width:0.8;"/>
   </g>
   <g id="legend_1">
    <g id="patch_7">
     <path d="M 249.400243 94.19375 
L 395.600243 94.19375 
Q 399.600243 94.19375 399.600243 90.19375 
L 399.600243 35.6 
Q 399.600243 31.6 395.600243 31.6 
L 249.400243 31.6 
Q 245.400243 31.6 245.400243 35.6 
L 245.400243 90.19375 
Q 245.400243 94.19375 249.400243 94.19375 
z
" style="fill:#ffffff;opacity:0.8;stroke:#cccccc;stroke-linejoin:miter;"/>
    </g>
    <g id="line2d_27">
     <path d="M 253.400243 46.6 
L 293.400243 46.6 
" style="fill:none;stroke:#1f77b4;stroke-linecap:square;stroke-width:1.5;"/>
    </g>
    <g id="line2d_28">
     <g>
      <use style="fill:#1f77b4;stroke:#ffffff;" x="273.400243" xlink:href="#m424f390ec0" y="46.6"/>
     </g>
    </g>
    <g id="text_15">
     <!-- Training -->
     <g transform="translate(309.400243 53.6)scale(0.2 -0.2)">
      <defs>
       <path d="M 57.859375 66.21875 
L 58.59375 50.6875 
L 56.734375 50.6875 
Q 56.203125 54.78125 55.28125 56.546875 
Q 53.765625 59.375 51.25 60.71875 
Q 48.734375 62.0625 44.625 62.0625 
L 35.296875 62.0625 
L 35.296875 11.46875 
Q 35.296875 5.375 36.625 3.859375 
Q 38.484375 1.8125 42.328125 1.8125 
L 44.625 1.8125 
L 44.625 0 
L 16.546875 0 
L 16.546875 1.8125 
L 18.890625 1.8125 
Q 23.09375 1.8125 24.859375 4.34375 
Q 25.921875 5.90625 25.921875 11.46875 
L 25.921875 62.0625 
L 17.96875 62.0625 
Q 13.328125 62.0625 11.375 61.375 
Q 8.84375 60.453125 7.03125 57.8125 
Q 5.21875 55.171875 4.890625 50.6875 
L 3.03125 50.6875 
L 3.8125 66.21875 
z
" id="TimesNewRomanPSMT-84"/>
       <path d="M 16.21875 46.046875 
L 16.21875 35.984375 
Q 21.828125 46.046875 27.734375 46.046875 
Q 30.421875 46.046875 32.171875 44.40625 
Q 33.9375 42.78125 33.9375 40.625 
Q 33.9375 38.71875 32.65625 37.390625 
Q 31.390625 36.078125 29.640625 36.078125 
Q 27.9375 36.078125 25.8125 37.765625 
Q 23.6875 39.453125 22.65625 39.453125 
Q 21.78125 39.453125 20.75 38.484375 
Q 18.5625 36.46875 16.21875 31.890625 
L 16.21875 10.453125 
Q 16.21875 6.734375 17.140625 4.828125 
Q 17.78125 3.515625 19.390625 2.640625 
Q 21 1.765625 24.03125 1.765625 
L 24.03125 0 
L 1.125 0 
L 1.125 1.765625 
Q 4.546875 1.765625 6.203125 2.828125 
Q 7.421875 3.609375 7.90625 5.328125 
Q 8.15625 6.15625 8.15625 10.0625 
L 8.15625 27.390625 
Q 8.15625 35.203125 7.828125 36.6875 
Q 7.515625 38.1875 6.65625 38.859375 
Q 5.8125 39.546875 4.546875 39.546875 
Q 3.03125 39.546875 1.125 38.8125 
L 0.640625 40.578125 
L 14.15625 46.046875 
z
" id="TimesNewRomanPSMT-114"/>
       <path d="M 28.46875 6.453125 
Q 21.578125 1.125 19.828125 0.296875 
Q 17.1875 -0.921875 14.203125 -0.921875 
Q 9.578125 -0.921875 6.5625 2.25 
Q 3.5625 5.421875 3.5625 10.59375 
Q 3.5625 13.875 5.03125 16.265625 
Q 7.03125 19.578125 11.984375 22.5 
Q 16.9375 25.4375 28.46875 29.640625 
L 28.46875 31.390625 
Q 28.46875 38.09375 26.34375 40.578125 
Q 24.21875 43.0625 20.171875 43.0625 
Q 17.09375 43.0625 15.28125 41.40625 
Q 13.421875 39.75 13.421875 37.59375 
L 13.53125 34.765625 
Q 13.53125 32.515625 12.375 31.296875 
Q 11.234375 30.078125 9.375 30.078125 
Q 7.5625 30.078125 6.421875 31.34375 
Q 5.28125 32.625 5.28125 34.8125 
Q 5.28125 39.015625 9.578125 42.53125 
Q 13.875 46.046875 21.625 46.046875 
Q 27.59375 46.046875 31.390625 44.046875 
Q 34.28125 42.53125 35.640625 39.3125 
Q 36.53125 37.203125 36.53125 30.71875 
L 36.53125 15.53125 
Q 36.53125 9.125 36.765625 7.6875 
Q 37.015625 6.25 37.578125 5.765625 
Q 38.140625 5.28125 38.875 5.28125 
Q 39.65625 5.28125 40.234375 5.609375 
Q 41.265625 6.25 44.1875 9.1875 
L 44.1875 6.453125 
Q 38.71875 -0.875 33.734375 -0.875 
Q 31.34375 -0.875 29.921875 0.78125 
Q 28.515625 2.4375 28.46875 6.453125 
z
M 28.46875 9.625 
L 28.46875 26.65625 
Q 21.09375 23.734375 18.953125 22.515625 
Q 15.09375 20.359375 13.421875 18.015625 
Q 11.765625 15.671875 11.765625 12.890625 
Q 11.765625 9.375 13.859375 7.046875 
Q 15.96875 4.734375 18.703125 4.734375 
Q 22.40625 4.734375 28.46875 9.625 
z
" id="TimesNewRomanPSMT-97"/>
       <path d="M 14.5 69.4375 
Q 16.546875 69.4375 17.984375 67.984375 
Q 19.4375 66.546875 19.4375 64.5 
Q 19.4375 62.453125 17.984375 60.984375 
Q 16.546875 59.515625 14.5 59.515625 
Q 12.453125 59.515625 10.984375 60.984375 
Q 9.515625 62.453125 9.515625 64.5 
Q 9.515625 66.546875 10.953125 67.984375 
Q 12.40625 69.4375 14.5 69.4375 
z
M 18.5625 46.046875 
L 18.5625 10.109375 
Q 18.5625 5.90625 19.171875 4.515625 
Q 19.78125 3.125 20.96875 2.4375 
Q 22.171875 1.765625 25.34375 1.765625 
L 25.34375 0 
L 3.609375 0 
L 3.609375 1.765625 
Q 6.890625 1.765625 8 2.390625 
Q 9.125 3.03125 9.78125 4.484375 
Q 10.453125 5.953125 10.453125 10.109375 
L 10.453125 27.34375 
Q 10.453125 34.625 10.015625 36.765625 
Q 9.671875 38.328125 8.9375 38.9375 
Q 8.203125 39.546875 6.9375 39.546875 
Q 5.5625 39.546875 3.609375 38.8125 
L 2.9375 40.578125 
L 16.40625 46.046875 
z
" id="TimesNewRomanPSMT-105"/>
       <path d="M 16.15625 36.578125 
Q 24.03125 46.046875 31.15625 46.046875 
Q 34.8125 46.046875 37.453125 44.21875 
Q 40.09375 42.390625 41.65625 38.1875 
Q 42.71875 35.25 42.71875 29.203125 
L 42.71875 10.109375 
Q 42.71875 5.859375 43.40625 4.34375 
Q 43.953125 3.125 45.140625 2.4375 
Q 46.34375 1.765625 49.5625 1.765625 
L 49.5625 0 
L 27.4375 0 
L 27.4375 1.765625 
L 28.375 1.765625 
Q 31.5 1.765625 32.734375 2.703125 
Q 33.984375 3.65625 34.46875 5.515625 
Q 34.671875 6.25 34.671875 10.109375 
L 34.671875 28.421875 
Q 34.671875 34.515625 33.078125 37.28125 
Q 31.5 40.046875 27.734375 40.046875 
Q 21.921875 40.046875 16.15625 33.6875 
L 16.15625 10.109375 
Q 16.15625 5.5625 16.703125 4.5 
Q 17.390625 3.078125 18.578125 2.421875 
Q 19.78125 1.765625 23.4375 1.765625 
L 23.4375 0 
L 1.3125 0 
L 1.3125 1.765625 
L 2.296875 1.765625 
Q 5.71875 1.765625 6.90625 3.484375 
Q 8.109375 5.21875 8.109375 10.109375 
L 8.109375 26.703125 
Q 8.109375 34.765625 7.734375 36.515625 
Q 7.375 38.28125 6.609375 38.90625 
Q 5.859375 39.546875 4.59375 39.546875 
Q 3.21875 39.546875 1.3125 38.8125 
L 0.59375 40.578125 
L 14.0625 46.046875 
L 16.15625 46.046875 
z
" id="TimesNewRomanPSMT-110"/>
       <path d="M 15.09375 16.3125 
Q 10.984375 18.3125 8.78125 21.890625 
Q 6.59375 25.484375 6.59375 29.828125 
Q 6.59375 36.46875 11.59375 41.25 
Q 16.609375 46.046875 24.421875 46.046875 
Q 30.8125 46.046875 35.5 42.921875 
L 44.96875 42.921875 
Q 47.078125 42.921875 47.40625 42.796875 
Q 47.75 42.671875 47.90625 42.390625 
Q 48.1875 41.9375 48.1875 40.828125 
Q 48.1875 39.546875 47.953125 39.0625 
Q 47.796875 38.8125 47.4375 38.671875 
Q 47.078125 38.53125 44.96875 38.53125 
L 39.15625 38.53125 
Q 41.890625 35.015625 41.890625 29.546875 
Q 41.890625 23.296875 37.109375 18.84375 
Q 32.328125 14.40625 24.265625 14.40625 
Q 20.953125 14.40625 17.484375 15.375 
Q 15.328125 13.53125 14.5625 12.140625 
Q 13.8125 10.75 13.8125 9.765625 
Q 13.8125 8.9375 14.625 8.15625 
Q 15.4375 7.375 17.78125 7.03125 
Q 19.140625 6.84375 24.609375 6.6875 
Q 34.671875 6.453125 37.640625 6 
Q 42.1875 5.375 44.890625 2.640625 
Q 47.609375 -0.09375 47.609375 -4.109375 
Q 47.609375 -9.625 42.4375 -14.453125 
Q 34.8125 -21.578125 22.5625 -21.578125 
Q 13.140625 -21.578125 6.640625 -17.328125 
Q 2.984375 -14.890625 2.984375 -12.25 
Q 2.984375 -11.078125 3.515625 -9.90625 
Q 4.34375 -8.109375 6.9375 -4.890625 
Q 7.28125 -4.4375 11.921875 0.390625 
Q 9.375 1.90625 8.328125 3.09375 
Q 7.28125 4.296875 7.28125 5.8125 
Q 7.28125 7.515625 8.671875 9.8125 
Q 10.0625 12.109375 15.09375 16.3125 
z
M 23.578125 43.703125 
Q 19.96875 43.703125 17.53125 40.8125 
Q 15.09375 37.9375 15.09375 31.984375 
Q 15.09375 24.265625 18.40625 20.015625 
Q 20.953125 16.796875 24.859375 16.796875 
Q 28.5625 16.796875 30.953125 19.578125 
Q 33.34375 22.359375 33.34375 28.328125 
Q 33.34375 36.078125 29.984375 40.484375 
Q 27.484375 43.703125 23.578125 43.703125 
z
M 14.59375 0 
Q 12.3125 -2.484375 11.140625 -4.625 
Q 9.96875 -6.78125 9.96875 -8.59375 
Q 9.96875 -10.9375 12.796875 -12.703125 
Q 17.671875 -15.71875 26.90625 -15.71875 
Q 35.6875 -15.71875 39.859375 -12.609375 
Q 44.046875 -9.515625 44.046875 -6 
Q 44.046875 -3.46875 41.546875 -2.390625 
Q 39.015625 -1.3125 31.5 -1.125 
Q 20.515625 -0.828125 14.59375 0 
z
" id="TimesNewRomanPSMT-103"/>
      </defs>
      <use xlink:href="#TimesNewRomanPSMT-84"/>
      <use x="57.583984" xlink:href="#TimesNewRomanPSMT-114"/>
      <use x="90.884766" xlink:href="#TimesNewRomanPSMT-97"/>
      <use x="135.269531" xlink:href="#TimesNewRomanPSMT-105"/>
      <use x="163.052734" xlink:href="#TimesNewRomanPSMT-110"/>
      <use x="213.052734" xlink:href="#TimesNewRomanPSMT-105"/>
      <use x="240.835938" xlink:href="#TimesNewRomanPSMT-110"/>
      <use x="290.835938" xlink:href="#TimesNewRomanPSMT-103"/>
     </g>
    </g>
    <g id="line2d_29">
     <path d="M 253.400243 74.915625 
L 293.400243 74.915625 
" style="fill:none;stroke:#ff7f0e;stroke-dasharray:5.55,2.4;stroke-dashoffset:0;stroke-width:1.5;"/>
    </g>
    <g id="line2d_30"/>
    <g id="text_16">
     <!-- Validation -->
     <g transform="translate(309.400243 81.915625)scale(0.2 -0.2)">
      <defs>
       <path d="M 71 66.21875 
L 71 64.40625 
Q 67.484375 63.765625 65.671875 62.15625 
Q 63.09375 59.765625 61.078125 54.828125 
L 37.984375 -1.515625 
L 36.1875 -1.515625 
L 11.375 55.5625 
Q 9.46875 59.96875 8.6875 60.9375 
Q 7.46875 62.453125 5.6875 63.296875 
Q 3.90625 64.15625 0.875 64.40625 
L 0.875 66.21875 
L 27.9375 66.21875 
L 27.9375 64.40625 
Q 23.34375 63.96875 21.96875 62.84375 
Q 20.609375 61.71875 20.609375 59.96875 
Q 20.609375 57.515625 22.859375 52.34375 
L 39.703125 13.53125 
L 55.328125 51.859375 
Q 57.625 57.515625 57.625 59.71875 
Q 57.625 61.140625 56.203125 62.421875 
Q 54.78125 63.71875 51.421875 64.265625 
Q 51.171875 64.3125 50.59375 64.40625 
L 50.59375 66.21875 
z
" id="TimesNewRomanPSMT-86"/>
       <path d="M 18.5 69.4375 
L 18.5 10.109375 
Q 18.5 5.90625 19.109375 4.53125 
Q 19.734375 3.171875 21 2.46875 
Q 22.265625 1.765625 25.734375 1.765625 
L 25.734375 0 
L 3.8125 0 
L 3.8125 1.765625 
Q 6.890625 1.765625 8 2.390625 
Q 9.125 3.03125 9.765625 4.484375 
Q 10.40625 5.953125 10.40625 10.109375 
L 10.40625 50.734375 
Q 10.40625 58.296875 10.0625 60.03125 
Q 9.71875 61.765625 8.953125 62.390625 
Q 8.203125 63.03125 7.03125 63.03125 
Q 5.765625 63.03125 3.8125 62.25 
L 2.984375 63.96875 
L 16.3125 69.4375 
z
" id="TimesNewRomanPSMT-108"/>
       <path d="M 34.71875 5.03125 
Q 31.453125 1.609375 28.328125 0.109375 
Q 25.203125 -1.375 21.578125 -1.375 
Q 14.265625 -1.375 8.796875 4.75 
Q 3.328125 10.890625 3.328125 20.515625 
Q 3.328125 30.125 9.375 38.109375 
Q 15.4375 46.09375 24.953125 46.09375 
Q 30.859375 46.09375 34.71875 42.328125 
L 34.71875 50.59375 
Q 34.71875 58.25 34.34375 60 
Q 33.984375 61.765625 33.203125 62.390625 
Q 32.421875 63.03125 31.25 63.03125 
Q 29.984375 63.03125 27.875 62.25 
L 27.25 63.96875 
L 40.578125 69.4375 
L 42.78125 69.4375 
L 42.78125 17.71875 
Q 42.78125 9.859375 43.140625 8.125 
Q 43.5 6.390625 44.3125 5.703125 
Q 45.125 5.03125 46.1875 5.03125 
Q 47.515625 5.03125 49.703125 5.859375 
L 50.25 4.15625 
L 36.96875 -1.375 
L 34.71875 -1.375 
z
M 34.71875 8.453125 
L 34.71875 31.5 
Q 34.421875 34.8125 32.953125 37.546875 
Q 31.5 40.28125 29.078125 41.671875 
Q 26.65625 43.0625 24.359375 43.0625 
Q 20.0625 43.0625 16.703125 39.203125 
Q 12.25 34.125 12.25 24.359375 
Q 12.25 14.5 16.546875 9.25 
Q 20.84375 4 26.125 4 
Q 30.5625 4 34.71875 8.453125 
z
" id="TimesNewRomanPSMT-100"/>
       <path d="M 16.109375 59.421875 
L 16.109375 44.734375 
L 26.5625 44.734375 
L 26.5625 41.3125 
L 16.109375 41.3125 
L 16.109375 12.3125 
Q 16.109375 7.953125 17.359375 6.4375 
Q 18.609375 4.9375 20.5625 4.9375 
Q 22.171875 4.9375 23.6875 5.9375 
Q 25.203125 6.9375 26.03125 8.890625 
L 27.9375 8.890625 
Q 26.21875 4.109375 23.09375 1.6875 
Q 19.96875 -0.734375 16.65625 -0.734375 
Q 14.40625 -0.734375 12.25 0.515625 
Q 10.109375 1.765625 9.078125 4.078125 
Q 8.0625 6.390625 8.0625 11.234375 
L 8.0625 41.3125 
L 0.984375 41.3125 
L 0.984375 42.921875 
Q 3.65625 44 6.46875 46.5625 
Q 9.28125 49.125 11.46875 52.640625 
Q 12.59375 54.5 14.59375 59.421875 
z
" id="TimesNewRomanPSMT-116"/>
      </defs>
      <use xlink:href="#TimesNewRomanPSMT-86"/>
      <use x="61.091797" xlink:href="#TimesNewRomanPSMT-97"/>
      <use x="105.476562" xlink:href="#TimesNewRomanPSMT-108"/>
      <use x="133.259766" xlink:href="#TimesNewRomanPSMT-105"/>
      <use x="161.042969" xlink:href="#TimesNewRomanPSMT-100"/>
      <use x="211.042969" xlink:href="#TimesNewRomanPSMT-97"/>
      <use x="255.427734" xlink:href="#TimesNewRomanPSMT-116"/>
      <use x="283.210938" xlink:href="#TimesNewRomanPSMT-105"/>
      <use x="310.994141" xlink:href="#TimesNewRomanPSMT-111"/>
      <use x="360.994141" xlink:href="#TimesNewRomanPSMT-110"/>
     </g>
    </g>
   </g>
  </g>
 </g>
 <defs>
  <clipPath id="pfe8d2a32e8">
   <rect height="197.8" width="282.605345" x="126.994898" y="21.6"/>
  </clipPath>
 </defs>
</svg>
